<svg width="43" height="24" viewBox="0 0 43 24" fill="none" xmlns="http://www.w3.org/2000/svg">
<g opacity="0.5">
<rect x="0.5" y="0.5" width="42" height="23" rx="3.5" stroke="#3A3A3C"/>
<path d="M7.95508 16H6.58398L9.63086 7.51562H11.1191L14.1777 16H12.8066L12.0332 13.7617H8.72852L7.95508 16ZM9.09766 12.6836H11.6582L10.4043 9.0625H10.3457L9.09766 12.6836ZM16.4043 7.51562V16H15.1504V7.51562H16.4043ZM17.9277 18.3906V9.63672H19.1465V10.668H19.252C19.4746 10.2695 19.9023 9.55469 21.0801 9.55469C22.6211 9.55469 23.752 10.7617 23.752 12.8359C23.752 14.8867 22.6328 16.123 21.0918 16.1289C19.9375 16.123 19.4805 15.4199 19.252 15.0039H19.1816V18.3906H17.9277ZM19.1582 12.8125C19.1582 14.1484 19.7441 15.0566 20.8105 15.0625C21.9121 15.0566 22.4863 14.0898 22.4863 12.8125C22.4863 11.5586 21.9297 10.6152 20.8105 10.6211C19.7324 10.6152 19.1582 11.4883 19.1582 12.8125ZM26.248 12.2266V16H24.9941V7.51562H26.2246V10.6797H26.3066C26.6055 9.98828 27.2031 9.55469 28.1934 9.55469C29.5 9.55469 30.373 10.3633 30.373 11.957V16H29.1191V12.1094C29.1191 11.1719 28.6152 10.6328 27.7715 10.6328C26.8867 10.6328 26.248 11.2129 26.248 12.2266ZM31.5918 14.207C31.5859 12.7539 32.8223 12.3789 33.9707 12.2969C34.3926 12.2734 35.3477 12.2207 35.6406 12.209L35.6348 11.6992C35.6406 10.9785 35.1953 10.5625 34.3457 10.5625C33.6074 10.5625 33.1621 10.9023 33.0332 11.3711H31.791C31.9023 10.3164 32.8867 9.55469 34.3926 9.55469C35.4062 9.55469 36.8828 9.92383 36.8887 11.7695V16H35.6699V15.1328H35.623C35.377 15.6074 34.791 16.1406 33.7363 16.1406C32.5293 16.1406 31.5859 15.4492 31.5918 14.207ZM32.8105 14.2188C32.8105 14.8281 33.3145 15.1387 34.0176 15.1445C35.0371 15.1387 35.6465 14.459 35.6465 13.7031L35.6406 13.123C35.3535 13.1406 34.4453 13.2051 34.1465 13.2227C33.3262 13.2812 32.8105 13.5918 32.8105 14.2188Z" fill="#3A3A3C"/>
</g>
</svg>
