<svg width="21" height="21" viewBox="0 0 21 21" fill="none" xmlns="http://www.w3.org/2000/svg">
<g clip-path="url(#clip0_497_5434)">
<path d="M7.16663 8.83341C7.16663 8.39139 7.34222 7.96746 7.65478 7.6549C7.96734 7.34234 8.39127 7.16675 8.83329 7.16675H15.5C15.942 7.16675 16.3659 7.34234 16.6785 7.6549C16.991 7.96746 17.1666 8.39139 17.1666 8.83341V15.5001C17.1666 15.9421 16.991 16.366 16.6785 16.6786C16.3659 16.9912 15.942 17.1667 15.5 17.1667H8.83329C8.39127 17.1667 7.96734 16.9912 7.65478 16.6786C7.34222 16.366 7.16663 15.9421 7.16663 15.5001V8.83341Z" stroke="#FF2D55" stroke-width="2" stroke-linecap="round" stroke-linejoin="round"/>
<path d="M13.8334 7.16659V5.49992C13.8334 5.05789 13.6578 4.63397 13.3452 4.32141C13.0327 4.00885 12.6087 3.83325 12.1667 3.83325H5.50004C5.05801 3.83325 4.63409 4.00885 4.32153 4.32141C4.00897 4.63397 3.83337 5.05789 3.83337 5.49992V12.1666C3.83337 12.6086 4.00897 13.0325 4.32153 13.3451C4.63409 13.6577 5.05801 13.8333 5.50004 13.8333H7.16671" stroke="#FF2D55" stroke-width="2" stroke-linecap="round" stroke-linejoin="round"/>
</g>
<defs>
<clipPath id="clip0_497_5434">
<rect width="20" height="20" fill="white" transform="translate(0.5 0.5)"/>
</clipPath>
</defs>
</svg>
