<svg width="32" height="32" viewBox="0 0 32 32" fill="none" xmlns="http://www.w3.org/2000/svg">
<path fill-rule="evenodd" clip-rule="evenodd" d="M14.6667 16.6666C14.6667 18.5075 13.4728 19.9999 12 19.9999C10.5272 19.9999 9.33333 18.5075 9.33333 16.6666C9.33333 14.8256 10.5272 13.3333 12 13.3333C13.4728 13.3333 14.6667 14.8256 14.6667 16.6666ZM10.9639 16.6666C10.9639 17.3819 11.4278 17.9617 12 17.9617C12.5722 17.9617 13.0361 17.3819 13.0361 16.6666C13.0361 15.9513 12.5722 15.3715 12 15.3715C11.4278 15.3715 10.9639 15.9513 10.9639 16.6666Z" fill="#1C1C1E"/>
<path fill-rule="evenodd" clip-rule="evenodd" d="M20 19.9999C21.4728 19.9999 22.6667 18.5075 22.6667 16.6666C22.6667 14.8256 21.4728 13.3333 20 13.3333C18.5272 13.3333 17.3333 14.8256 17.3333 16.6666C17.3333 18.5075 18.5272 19.9999 20 19.9999ZM20 17.9617C19.4278 17.9617 18.9639 17.3819 18.9639 16.6666C18.9639 15.9513 19.4278 15.3715 20 15.3715C20.5722 15.3715 21.0361 15.9513 21.0361 16.6666C21.0361 17.3819 20.5722 17.9617 20 17.9617Z" fill="#1C1C1E"/>
<path fill-rule="evenodd" clip-rule="evenodd" d="M13.3152 4.44739C13.2544 4.08284 13.0451 3.75985 12.7371 3.55553C12.4291 3.35122 12.0502 3.28389 11.6907 3.36964C8.81968 4.05438 7.19768 4.62792 4.63697 6.19623C4.44224 6.31549 4.2814 6.48277 4.16987 6.68203C2.5824 9.51815 1.52685 11.9645 0.877145 14.5887C0.228745 17.2077 2.02656e-05 19.942 0 23.3333C0 23.6869 0.140471 24.026 0.390517 24.2761C1.80254 25.6881 3.26756 26.8002 4.95845 27.5517C6.65513 28.3058 8.51107 28.6666 10.6667 28.6666C11.2406 28.6666 11.7501 28.2994 11.9316 27.7549L12.8312 25.0561C13.8308 25.224 14.9025 25.3332 16 25.3332C17.0975 25.3332 18.1692 25.224 19.1688 25.0561L20.0684 27.7549C20.2499 28.2994 20.7594 28.6666 21.3333 28.6666C23.4889 28.6666 25.3449 28.3058 27.0415 27.5517C28.7324 26.8002 30.1975 25.6881 31.6095 24.2761C31.8595 24.026 32 23.6869 32 23.3333C32 19.942 31.7713 17.2077 31.1229 14.5887C30.4732 11.9645 29.4176 9.51815 27.8301 6.68203C27.7186 6.48277 27.5578 6.31549 27.363 6.19623C24.8023 4.62792 23.1803 4.05438 20.3093 3.36964C19.9498 3.28389 19.5709 3.35122 19.2629 3.55553C18.9549 3.75985 18.7456 4.08284 18.6848 4.44739L18.1808 7.47166C17.5054 7.38449 16.7776 7.33317 16 7.33317C15.2224 7.33317 14.4946 7.38449 13.8192 7.47166L13.3152 4.44739ZM22.2847 25.971L21.782 24.4628C22.9628 24.1269 24.1345 23.7294 25.2441 23.2017C25.9078 22.8828 26.1874 22.0862 25.8685 21.4225C25.5496 20.7589 24.7529 20.4795 24.0892 20.7981C23.2967 21.1724 22.4608 21.4666 21.6255 21.727C20.0937 22.2046 18.0688 22.6666 16 22.6666C13.9312 22.6666 11.9063 22.2046 10.3745 21.727C9.53978 21.4667 8.70789 21.1707 7.91476 20.8C7.25625 20.489 6.44931 20.7611 6.13152 21.4225C5.81498 22.0813 6.10517 22.8908 6.76294 23.2051C7.87087 23.7303 9.03959 24.1276 10.2181 24.4628L9.71529 25.971C8.30165 25.8823 7.11276 25.591 6.04149 25.1148C4.86953 24.594 3.78372 23.8278 2.66892 22.7728C2.69355 19.7696 2.92206 17.4253 3.46566 15.2296C4.01944 12.9928 4.91448 10.8531 6.32694 8.29031C8.00573 7.28594 9.20141 6.78672 10.923 6.31502L11.2094 8.03334C10.0426 8.39202 8.85486 8.86635 7.87067 9.59685C7.29239 10.0283 7.16676 10.8889 7.6 11.4665C8.04032 12.0536 8.87186 12.1742 9.46063 11.7377C9.95187 11.386 10.5209 11.1275 11.0785 10.9045C12.195 10.4579 13.8603 9.99984 16 9.99984C18.1397 9.99984 19.805 10.4579 20.9215 10.9045C21.479 11.1275 22.0481 11.386 22.5393 11.7377C23.1281 12.1742 23.9597 12.0536 24.4 11.4665C24.8321 10.8903 24.7013 10.0213 24.1243 9.59313C23.13 8.87481 21.9591 8.39254 20.7906 8.03334L21.077 6.31502C22.7986 6.78672 23.9943 7.28594 25.6731 8.29031C27.0855 10.8531 27.9806 12.9928 28.5343 15.2296C29.0779 17.4253 29.3065 19.7696 29.3311 22.7728C28.2163 23.8278 27.1305 24.594 25.9585 25.1148C24.8872 25.591 23.6984 25.8823 22.2847 25.971ZM12 19.9999C13.4728 19.9999 14.6667 18.5075 14.6667 16.6666C14.6667 14.8256 13.4728 13.3333 12 13.3333C10.5272 13.3333 9.33333 14.8256 9.33333 16.6666C9.33333 18.5075 10.5272 19.9999 12 19.9999ZM22.6667 16.6666C22.6667 18.5075 21.4728 19.9999 20 19.9999C18.5272 19.9999 17.3333 18.5075 17.3333 16.6666C17.3333 14.8256 18.5272 13.3333 20 13.3333C21.4728 13.3333 22.6667 14.8256 22.6667 16.6666ZM12 17.9617C11.4278 17.9617 10.9639 17.3819 10.9639 16.6666C10.9639 15.9513 11.4278 15.3715 12 15.3715C12.5722 15.3715 13.0361 15.9513 13.0361 16.6666C13.0361 17.3819 12.5722 17.9617 12 17.9617ZM20 17.9617C19.4278 17.9617 18.9639 17.3819 18.9639 16.6666C18.9639 15.9513 19.4278 15.3715 20 15.3715C20.5722 15.3715 21.0361 15.9513 21.0361 16.6666C21.0361 17.3819 20.5722 17.9617 20 17.9617Z" fill="#1C1C1E"/>
</svg>
