<svg width="82" height="112" viewBox="0 0 82 112" fill="none" xmlns="http://www.w3.org/2000/svg">
<path fill-rule="evenodd" clip-rule="evenodd" d="M25.4331 48.9415C22.7368 47.4707 19.6199 47.0285 16.1209 48.0522C5.29706 51.2196 0.918458 59.6956 0.327281 69.7432C-0.535452 84.4144 6.79898 102.469 13.3548 111.443C13.6648 111.868 14.2608 111.959 14.6838 111.649C15.1092 111.339 15.2028 110.743 14.8928 110.318C8.52923 101.609 1.39192 84.0925 2.22822 69.8538C2.77133 60.628 6.71492 52.7889 16.6568 49.8811C19.6151 49.0135 22.2441 49.3956 24.5271 50.6332C23.7413 52.1376 23.0083 53.6444 22.3306 55.1512C20.461 59.3111 17.6661 70.8606 18.7091 79.3534C19.4589 85.4454 22.1768 89.961 28.1174 89.8024C31.4194 89.7134 33.8081 87.6563 35.2692 84.3832C37.2806 79.8845 37.5065 72.9922 36.091 66.3884C34.9135 60.8899 32.6065 55.6006 29.3334 52.0511C28.6125 51.2725 27.8482 50.5732 27.0384 49.9724C38.3332 29.3148 59.3152 9.99825 80.8619 1.85155C81.3522 1.6641 81.6021 1.11621 81.4146 0.623565C81.2296 0.130917 80.6792 -0.116622 80.189 0.0684212C58.2914 8.3497 36.9611 27.9475 25.4331 48.9415ZM26.1276 51.681C25.3922 53.0965 24.7049 54.5144 24.0681 55.9322C22.2777 59.9191 19.6006 70.9832 20.6003 79.1203C21.2131 84.114 23.1982 88.0288 28.067 87.899C30.6239 87.8293 32.3974 86.1399 33.5317 83.607C34.7765 80.8194 35.2524 77.044 35.0529 73.0187C34.7501 66.9075 32.8829 60.2219 29.6338 55.4901C28.6053 53.9905 27.4349 52.6904 26.1276 51.681Z" fill="#3A3A3C"/>
<path fill-rule="evenodd" clip-rule="evenodd" d="M63.8363 33.0247C65.754 21.826 73.074 9.90147 80.9636 1.64422C81.3265 1.26452 81.3121 0.661301 80.9324 0.298424C80.5527 -0.064453 79.9495 -0.052409 79.5866 0.32729C71.4495 8.84168 63.9372 21.1579 61.9594 32.7026C61.8705 33.2193 62.219 33.712 62.7381 33.8009C63.2548 33.8898 63.7474 33.5413 63.8363 33.0247Z" fill="#3A3A3C"/>
<path fill-rule="evenodd" clip-rule="evenodd" d="M79.4639 0.126347C71.2499 4.81731 58.6501 5.46618 49.4652 3.08946C48.9558 2.95729 48.4343 3.26251 48.3045 3.77198C48.1723 4.28145 48.4775 4.80049 48.987 4.93266C58.6092 7.42234 71.8025 6.69421 80.4083 1.77975C80.8649 1.52021 81.0236 0.936204 80.764 0.479604C80.5021 0.0230038 79.9205 -0.135598 79.4639 0.126347Z" fill="#3A3A3C"/>
</svg>
