<svg width="25" height="69" viewBox="0 0 25 69" fill="none" xmlns="http://www.w3.org/2000/svg">
<path fill-rule="evenodd" clip-rule="evenodd" d="M14.9715 40.2714C14.9139 39.9725 14.7987 39.6741 14.6835 39.3764C14.1652 37.769 13.5892 35.8943 12.5525 34.5104C11.1703 32.6957 9.6154 31.9942 8.06041 32.0098C5.8719 32.0334 3.62603 33.6477 2.24381 35.8598C0.861597 38.0518 0.285449 40.7966 1.14933 43.0076C1.72526 44.5228 2.99229 45.8158 5.18079 46.5207C7.65726 47.3339 10.0185 46.6687 12.0919 45.2352C12.8982 44.6973 13.5892 44.05 14.2803 43.337C14.453 44.2752 14.626 45.2226 14.7988 46.1832C15.2596 49.3283 15.3748 52.6341 15.2021 55.8046C15.0293 59.9984 14.1651 64.0103 12.5525 67.8863C12.4373 68.2445 12.6102 68.6546 12.9557 68.802C13.3013 68.9489 13.7042 68.7784 13.877 68.4202C15.5472 64.3916 16.4691 60.2219 16.6419 55.8633C16.7571 52.6007 16.699 49.1993 16.1807 45.9626C15.9503 44.6219 15.7201 43.3059 15.4321 42.0049C16.7567 40.2978 17.7935 38.4013 18.427 36.7888C22.4585 26.0011 17.2178 11.4746 12.0345 1.69951C11.8617 1.35741 11.4582 1.22725 11.1127 1.40808C10.7671 1.5895 10.6519 2.01395 10.8247 2.35605C15.8352 11.8173 21.0188 25.8526 17.1025 36.2935C16.6418 37.5213 15.893 38.9306 14.9715 40.2714ZM13.877 41.6674C13.7618 41.0512 13.5894 40.439 13.359 39.8285C12.8407 38.3553 12.3801 36.624 11.4586 35.3564C10.4219 33.9863 9.26962 33.4006 8.11777 33.4121C6.27482 33.4311 4.54728 34.8191 3.45302 36.6085C2.30118 38.4175 1.72514 40.6716 2.47384 42.4967C2.93458 43.6716 3.91387 44.6409 5.58405 45.1874C7.65737 45.8572 9.61517 45.2629 11.2853 44.0817C12.2644 43.4245 13.1283 42.5871 13.877 41.6674Z" fill="#3A3A3C"/>
<path fill-rule="evenodd" clip-rule="evenodd" d="M11.3443 1.59267C11.6323 1.79597 11.9202 2.10006 12.2082 2.40472C12.7841 2.99043 13.3026 3.61127 13.7633 3.9384C16.5277 5.95298 19.868 8.33442 23.1507 9.39066C23.4963 9.50988 23.8994 9.30772 24.0146 8.93913C24.1298 8.57111 23.9571 8.17546 23.554 8.05624C20.444 7.04262 17.2761 4.73604 14.5693 2.80267C14.1085 2.44905 13.4753 1.70036 12.8994 1.10025C12.3811 0.59113 11.8626 0.185103 11.3443 0.0376671C11.0563 -0.065999 10.538 0.0491832 10.1925 0.697672C9.73173 1.61685 9.32824 4.16934 9.27065 4.41641C8.69473 6.91937 8.11892 9.1217 5.93041 10.702C5.64245 10.9295 5.58497 11.369 5.75775 11.6817C5.98811 11.9944 6.44896 12.0635 6.73693 11.8355C9.21339 10.034 10.0196 7.56728 10.6531 4.71416C10.6531 4.53217 10.8835 3.00655 11.229 1.94627C11.2866 1.83166 11.2867 1.70555 11.3443 1.59267Z" fill="#3A3A3C"/>
</svg>
