<svg width="32" height="32" viewBox="0 0 32 32" fill="none" xmlns="http://www.w3.org/2000/svg">
<path fill-rule="evenodd" clip-rule="evenodd" d="M16 23.9999C20.4183 23.9999 24 20.4182 24 15.9999C24 11.5816 20.4183 7.99992 16 7.99992C11.5818 7.99992 8.00004 11.5816 8.00004 15.9999C8.00004 20.4182 11.5818 23.9999 16 23.9999ZM16 21.3333C18.9456 21.3333 21.3334 18.9454 21.3334 15.9999C21.3334 13.0544 18.9456 10.6666 16 10.6666C13.0545 10.6666 10.6667 13.0544 10.6667 15.9999C10.6667 18.9454 13.0545 21.3333 16 21.3333Z" fill="#1C1C1E"/>
<path d="M24 6.66659C23.2637 6.66659 22.6667 7.26354 22.6667 7.99992C22.6667 8.7363 23.2637 9.33325 24 9.33325C24.7364 9.33325 25.3334 8.7363 25.3334 7.99992C25.3334 7.26354 24.7364 6.66659 24 6.66659Z" fill="#1C1C1E"/>
<path fill-rule="evenodd" clip-rule="evenodd" d="M2.20532 5.70133C1.33337 7.41262 1.33337 9.65283 1.33337 14.1333V17.8666C1.33337 22.347 1.33337 24.5872 2.20532 26.2985C2.97231 27.8038 4.19615 29.0277 5.70145 29.7946C7.41274 30.6666 9.65295 30.6666 14.1334 30.6666H17.8667C22.3471 30.6666 24.5873 30.6666 26.2986 29.7946C27.8039 29.0277 29.0278 27.8038 29.7948 26.2985C30.6667 24.5872 30.6667 22.347 30.6667 17.8666V14.1333C30.6667 9.65283 30.6667 7.41262 29.7948 5.70133C29.0278 4.19603 27.8039 2.97219 26.2986 2.2052C24.5873 1.33325 22.3471 1.33325 17.8667 1.33325H14.1334C9.65295 1.33325 7.41274 1.33325 5.70145 2.2052C4.19615 2.97219 2.97231 4.19603 2.20532 5.70133ZM17.8667 3.99992H14.1334C11.8492 3.99992 10.2964 4.00199 9.09614 4.10006C7.92703 4.19558 7.32916 4.36871 6.91209 4.58122C5.90856 5.09254 5.09266 5.90844 4.58134 6.91197C4.36883 7.32904 4.1957 7.92691 4.10018 9.09602C4.00211 10.2963 4.00004 11.849 4.00004 14.1333V17.8666C4.00004 20.1508 4.00211 21.7036 4.10018 22.9038C4.1957 24.0729 4.36883 24.6708 4.58134 25.0879C5.09266 26.0914 5.90856 26.9073 6.91209 27.4186C7.32916 27.6311 7.92703 27.8043 9.09614 27.8998C10.2964 27.9978 11.8492 27.9999 14.1334 27.9999H17.8667C20.1509 27.9999 21.7037 27.9978 22.9039 27.8998C24.073 27.8043 24.6709 27.6311 25.088 27.4186C26.0915 26.9073 26.9074 26.0914 27.4187 25.0879C27.6312 24.6708 27.8044 24.0729 27.8999 22.9038C27.998 21.7036 28 20.1508 28 17.8666V14.1333C28 11.849 27.998 10.2963 27.8999 9.09602C27.8044 7.92691 27.6312 7.32903 27.4187 6.91197C26.9074 5.90844 26.0915 5.09254 25.088 4.58122C24.6709 4.36871 24.073 4.19558 22.9039 4.10006C21.7037 4.00199 20.1509 3.99992 17.8667 3.99992Z" fill="#1C1C1E"/>
</svg>
