<svg width="26" height="22" viewBox="0 0 26 22" fill="none" xmlns="http://www.w3.org/2000/svg">
<path d="M2.33333 3.00008L10.4768 9.14977L10.4796 9.15202C11.3838 9.81513 11.8362 10.1469 12.3317 10.275C12.7696 10.3883 13.23 10.3883 13.668 10.275C14.1639 10.1468 14.6176 9.81404 15.5234 9.14977C15.5234 9.14977 20.7468 5.14133 23.6667 3.00008M1 16.067V5.93367C1 4.4402 1 3.69291 1.29065 3.12248C1.54631 2.62071 1.95396 2.21306 2.45573 1.9574C3.02616 1.66675 3.77345 1.66675 5.26693 1.66675H20.7336C22.2271 1.66675 22.9728 1.66675 23.5432 1.9574C24.045 2.21306 24.454 2.62071 24.7096 3.12248C25 3.69235 25 4.43874 25 5.92929V16.0715C25 17.5621 25 18.3074 24.7096 18.8773C24.454 19.379 24.045 19.7874 23.5432 20.043C22.9733 20.3334 22.228 20.3334 20.7375 20.3334H5.26255C3.77199 20.3334 3.0256 20.3334 2.45573 20.043C1.95396 19.7874 1.54631 19.379 1.29065 18.8773C1 18.3068 1 17.5605 1 16.067Z" stroke="#3A3A3C" stroke-width="2" stroke-linecap="round" stroke-linejoin="round"/>
</svg>
