<svg width="304" height="304" viewBox="0 0 304 304" fill="none" xmlns="http://www.w3.org/2000/svg">
<g clip-path="url(#clip0_908_8848)">
<path d="M304 0H0V304H304V0Z" fill="white"/>
<path d="M28.0782 18.8988H18.8988V28.0782H28.0782V18.8988Z" fill="black"/>
<path d="M37.2575 18.8988H28.0781V28.0782H37.2575V18.8988Z" fill="black"/>
<path d="M46.437 18.8988H37.2576V28.0782H46.437V18.8988Z" fill="black"/>
<path d="M55.6163 18.8988H46.4369V28.0782H55.6163V18.8988Z" fill="black"/>
<path d="M64.7957 18.8988H55.6163V28.0782H64.7957V18.8988Z" fill="black"/>
<path d="M73.9751 18.8988H64.7957V28.0782H73.9751V18.8988Z" fill="black"/>
<path d="M83.1546 18.8988H73.9752V28.0782H83.1546V18.8988Z" fill="black"/>
<path d="M92.3339 18.8988H83.1545V28.0782H92.3339V18.8988Z" fill="white"/>
<path d="M101.513 18.8988H92.3339V28.0782H101.513V18.8988Z" fill="white"/>
<path d="M110.693 18.8988H101.513V28.0782H110.693V18.8988Z" fill="white"/>
<path d="M119.872 18.8988H110.693V28.0782H119.872V18.8988Z" fill="white"/>
<path d="M129.052 18.8988H119.872V28.0782H129.052V18.8988Z" fill="black"/>
<path d="M138.231 18.8988H129.052V28.0782H138.231V18.8988Z" fill="white"/>
<path d="M147.41 18.8988H138.231V28.0782H147.41V18.8988Z" fill="white"/>
<path d="M156.59 18.8988H147.41V28.0782H156.59V18.8988Z" fill="white"/>
<path d="M165.769 18.8988H156.59V28.0782H165.769V18.8988Z" fill="black"/>
<path d="M174.948 18.8988H165.769V28.0782H174.948V18.8988Z" fill="white"/>
<path d="M184.128 18.8988H174.948V28.0782H184.128V18.8988Z" fill="black"/>
<path d="M193.307 18.8988H184.128V28.0782H193.307V18.8988Z" fill="black"/>
<path d="M202.487 18.8988H193.307V28.0782H202.487V18.8988Z" fill="black"/>
<path d="M211.666 18.8988H202.487V28.0782H211.666V18.8988Z" fill="white"/>
<path d="M220.845 18.8988H211.666V28.0782H220.845V18.8988Z" fill="white"/>
<path d="M230.025 18.8988H220.845V28.0782H230.025V18.8988Z" fill="black"/>
<path d="M239.204 18.8988H230.025V28.0782H239.204V18.8988Z" fill="black"/>
<path d="M248.384 18.8988H239.204V28.0782H248.384V18.8988Z" fill="black"/>
<path d="M257.563 18.8988H248.384V28.0782H257.563V18.8988Z" fill="black"/>
<path d="M266.742 18.8988H257.563V28.0782H266.742V18.8988Z" fill="black"/>
<path d="M275.922 18.8988H266.742V28.0782H275.922V18.8988Z" fill="black"/>
<path d="M285.101 18.8988H275.922V28.0782H285.101V18.8988Z" fill="black"/>
<path d="M28.0782 28.0781H18.8988V37.2575H28.0782V28.0781Z" fill="black"/>
<path d="M37.2575 28.0781H28.0781V37.2575H37.2575V28.0781Z" fill="white"/>
<path d="M46.437 28.0781H37.2576V37.2575H46.437V28.0781Z" fill="white"/>
<path d="M55.6163 28.0781H46.4369V37.2575H55.6163V28.0781Z" fill="white"/>
<path d="M64.7957 28.0781H55.6163V37.2575H64.7957V28.0781Z" fill="white"/>
<path d="M73.9751 28.0781H64.7957V37.2575H73.9751V28.0781Z" fill="white"/>
<path d="M83.1546 28.0781H73.9752V37.2575H83.1546V28.0781Z" fill="black"/>
<path d="M92.3339 28.0781H83.1545V37.2575H92.3339V28.0781Z" fill="white"/>
<path d="M101.513 28.0781H92.3339V37.2575H101.513V28.0781Z" fill="black"/>
<path d="M110.693 28.0781H101.513V37.2575H110.693V28.0781Z" fill="black"/>
<path d="M119.872 28.0781H110.693V37.2575H119.872V28.0781Z" fill="white"/>
<path d="M129.052 28.0781H119.872V37.2575H129.052V28.0781Z" fill="black"/>
<path d="M138.231 28.0781H129.052V37.2575H138.231V28.0781Z" fill="white"/>
<path d="M147.41 28.0781H138.231V37.2575H147.41V28.0781Z" fill="black"/>
<path d="M156.59 28.0781H147.41V37.2575H156.59V28.0781Z" fill="black"/>
<path d="M165.769 28.0781H156.59V37.2575H165.769V28.0781Z" fill="black"/>
<path d="M174.948 28.0781H165.769V37.2575H174.948V28.0781Z" fill="white"/>
<path d="M184.128 28.0781H174.948V37.2575H184.128V28.0781Z" fill="white"/>
<path d="M193.307 28.0781H184.128V37.2575H193.307V28.0781Z" fill="black"/>
<path d="M202.487 28.0781H193.307V37.2575H202.487V28.0781Z" fill="white"/>
<path d="M211.666 28.0781H202.487V37.2575H211.666V28.0781Z" fill="black"/>
<path d="M220.845 28.0781H211.666V37.2575H220.845V28.0781Z" fill="white"/>
<path d="M230.025 28.0781H220.845V37.2575H230.025V28.0781Z" fill="black"/>
<path d="M239.204 28.0781H230.025V37.2575H239.204V28.0781Z" fill="white"/>
<path d="M248.384 28.0781H239.204V37.2575H248.384V28.0781Z" fill="white"/>
<path d="M257.563 28.0781H248.384V37.2575H257.563V28.0781Z" fill="white"/>
<path d="M266.742 28.0781H257.563V37.2575H266.742V28.0781Z" fill="white"/>
<path d="M275.922 28.0781H266.742V37.2575H275.922V28.0781Z" fill="white"/>
<path d="M285.101 28.0781H275.922V37.2575H285.101V28.0781Z" fill="black"/>
<path d="M28.0782 37.2576H18.8988V46.437H28.0782V37.2576Z" fill="black"/>
<path d="M37.2575 37.2576H28.0781V46.437H37.2575V37.2576Z" fill="white"/>
<path d="M46.437 37.2576H37.2576V46.437H46.437V37.2576Z" fill="black"/>
<path d="M55.6163 37.2576H46.4369V46.437H55.6163V37.2576Z" fill="black"/>
<path d="M64.7957 37.2576H55.6163V46.437H64.7957V37.2576Z" fill="black"/>
<path d="M73.9751 37.2576H64.7957V46.437H73.9751V37.2576Z" fill="white"/>
<path d="M83.1546 37.2576H73.9752V46.437H83.1546V37.2576Z" fill="black"/>
<path d="M92.3339 37.2576H83.1545V46.437H92.3339V37.2576Z" fill="white"/>
<path d="M101.513 37.2576H92.3339V46.437H101.513V37.2576Z" fill="black"/>
<path d="M110.693 37.2576H101.513V46.437H110.693V37.2576Z" fill="white"/>
<path d="M119.872 37.2576H110.693V46.437H119.872V37.2576Z" fill="white"/>
<path d="M129.052 37.2576H119.872V46.437H129.052V37.2576Z" fill="white"/>
<path d="M138.231 37.2576H129.052V46.437H138.231V37.2576Z" fill="black"/>
<path d="M147.41 37.2576H138.231V46.437H147.41V37.2576Z" fill="white"/>
<path d="M156.59 37.2576H147.41V46.437H156.59V37.2576Z" fill="black"/>
<path d="M165.769 37.2576H156.59V46.437H165.769V37.2576Z" fill="white"/>
<path d="M174.948 37.2576H165.769V46.437H174.948V37.2576Z" fill="black"/>
<path d="M184.128 37.2576H174.948V46.437H184.128V37.2576Z" fill="black"/>
<path d="M193.307 37.2576H184.128V46.437H193.307V37.2576Z" fill="black"/>
<path d="M202.487 37.2576H193.307V46.437H202.487V37.2576Z" fill="white"/>
<path d="M211.666 37.2576H202.487V46.437H211.666V37.2576Z" fill="white"/>
<path d="M220.845 37.2576H211.666V46.437H220.845V37.2576Z" fill="white"/>
<path d="M230.025 37.2576H220.845V46.437H230.025V37.2576Z" fill="black"/>
<path d="M239.204 37.2576H230.025V46.437H239.204V37.2576Z" fill="white"/>
<path d="M248.384 37.2576H239.204V46.437H248.384V37.2576Z" fill="black"/>
<path d="M257.563 37.2576H248.384V46.437H257.563V37.2576Z" fill="black"/>
<path d="M266.742 37.2576H257.563V46.437H266.742V37.2576Z" fill="black"/>
<path d="M275.922 37.2576H266.742V46.437H275.922V37.2576Z" fill="white"/>
<path d="M285.101 37.2576H275.922V46.437H285.101V37.2576Z" fill="black"/>
<path d="M28.0782 46.437H18.8988V55.6164H28.0782V46.437Z" fill="black"/>
<path d="M37.2575 46.437H28.0781V55.6164H37.2575V46.437Z" fill="white"/>
<path d="M46.437 46.437H37.2576V55.6164H46.437V46.437Z" fill="black"/>
<path d="M55.6163 46.437H46.4369V55.6164H55.6163V46.437Z" fill="black"/>
<path d="M64.7957 46.437H55.6163V55.6164H64.7957V46.437Z" fill="black"/>
<path d="M73.9751 46.437H64.7957V55.6164H73.9751V46.437Z" fill="white"/>
<path d="M83.1546 46.437H73.9752V55.6164H83.1546V46.437Z" fill="black"/>
<path d="M92.3339 46.437H83.1545V55.6164H92.3339V46.437Z" fill="white"/>
<path d="M101.513 46.437H92.3339V55.6164H101.513V46.437Z" fill="white"/>
<path d="M110.693 46.437H101.513V55.6164H110.693V46.437Z" fill="white"/>
<path d="M119.872 46.437H110.693V55.6164H119.872V46.437Z" fill="black"/>
<path d="M129.052 46.437H119.872V55.6164H129.052V46.437Z" fill="black"/>
<path d="M138.231 46.437H129.052V55.6164H138.231V46.437Z" fill="black"/>
<path d="M147.41 46.437H138.231V55.6164H147.41V46.437Z" fill="white"/>
<path d="M156.59 46.437H147.41V55.6164H156.59V46.437Z" fill="black"/>
<path d="M165.769 46.437H156.59V55.6164H165.769V46.437Z" fill="white"/>
<path d="M174.948 46.437H165.769V55.6164H174.948V46.437Z" fill="black"/>
<path d="M184.128 46.437H174.948V55.6164H184.128V46.437Z" fill="white"/>
<path d="M193.307 46.437H184.128V55.6164H193.307V46.437Z" fill="black"/>
<path d="M202.487 46.437H193.307V55.6164H202.487V46.437Z" fill="white"/>
<path d="M211.666 46.437H202.487V55.6164H211.666V46.437Z" fill="white"/>
<path d="M220.845 46.437H211.666V55.6164H220.845V46.437Z" fill="white"/>
<path d="M230.025 46.437H220.845V55.6164H230.025V46.437Z" fill="black"/>
<path d="M239.204 46.437H230.025V55.6164H239.204V46.437Z" fill="white"/>
<path d="M248.384 46.437H239.204V55.6164H248.384V46.437Z" fill="black"/>
<path d="M257.563 46.437H248.384V55.6164H257.563V46.437Z" fill="black"/>
<path d="M266.742 46.437H257.563V55.6164H266.742V46.437Z" fill="black"/>
<path d="M275.922 46.437H266.742V55.6164H275.922V46.437Z" fill="white"/>
<path d="M285.101 46.437H275.922V55.6164H285.101V46.437Z" fill="black"/>
<path d="M28.0782 55.6165H18.8988V64.7959H28.0782V55.6165Z" fill="black"/>
<path d="M37.2575 55.6165H28.0781V64.7959H37.2575V55.6165Z" fill="white"/>
<path d="M46.437 55.6165H37.2576V64.7959H46.437V55.6165Z" fill="black"/>
<path d="M55.6163 55.6165H46.4369V64.7959H55.6163V55.6165Z" fill="black"/>
<path d="M64.7957 55.6165H55.6163V64.7959H64.7957V55.6165Z" fill="black"/>
<path d="M73.9751 55.6165H64.7957V64.7959H73.9751V55.6165Z" fill="white"/>
<path d="M83.1546 55.6165H73.9752V64.7959H83.1546V55.6165Z" fill="black"/>
<path d="M92.3339 55.6165H83.1545V64.7959H92.3339V55.6165Z" fill="white"/>
<path d="M101.513 55.6165H92.3339V64.7959H101.513V55.6165Z" fill="black"/>
<path d="M110.693 55.6165H101.513V64.7959H110.693V55.6165Z" fill="white"/>
<path d="M119.872 55.6165H110.693V64.7959H119.872V55.6165Z" fill="white"/>
<path d="M129.052 55.6165H119.872V64.7959H129.052V55.6165Z" fill="black"/>
<path d="M138.231 55.6165H129.052V64.7959H138.231V55.6165Z" fill="white"/>
<path d="M147.41 55.6165H138.231V64.7959H147.41V55.6165Z" fill="black"/>
<path d="M156.59 55.6165H147.41V64.7959H156.59V55.6165Z" fill="black"/>
<path d="M165.769 55.6165H156.59V64.7959H165.769V55.6165Z" fill="black"/>
<path d="M174.948 55.6165H165.769V64.7959H174.948V55.6165Z" fill="white"/>
<path d="M184.128 55.6165H174.948V64.7959H184.128V55.6165Z" fill="black"/>
<path d="M193.307 55.6165H184.128V64.7959H193.307V55.6165Z" fill="black"/>
<path d="M202.487 55.6165H193.307V64.7959H202.487V55.6165Z" fill="white"/>
<path d="M211.666 55.6165H202.487V64.7959H211.666V55.6165Z" fill="white"/>
<path d="M220.845 55.6165H211.666V64.7959H220.845V55.6165Z" fill="white"/>
<path d="M230.025 55.6165H220.845V64.7959H230.025V55.6165Z" fill="black"/>
<path d="M239.204 55.6165H230.025V64.7959H239.204V55.6165Z" fill="white"/>
<path d="M248.384 55.6165H239.204V64.7959H248.384V55.6165Z" fill="black"/>
<path d="M257.563 55.6165H248.384V64.7959H257.563V55.6165Z" fill="black"/>
<path d="M266.742 55.6165H257.563V64.7959H266.742V55.6165Z" fill="black"/>
<path d="M275.922 55.6165H266.742V64.7959H275.922V55.6165Z" fill="white"/>
<path d="M285.101 55.6165H275.922V64.7959H285.101V55.6165Z" fill="black"/>
<path d="M28.0782 64.7957H18.8988V73.975H28.0782V64.7957Z" fill="black"/>
<path d="M37.2575 64.7957H28.0781V73.975H37.2575V64.7957Z" fill="white"/>
<path d="M46.437 64.7957H37.2576V73.975H46.437V64.7957Z" fill="white"/>
<path d="M55.6163 64.7957H46.4369V73.975H55.6163V64.7957Z" fill="white"/>
<path d="M64.7957 64.7957H55.6163V73.975H64.7957V64.7957Z" fill="white"/>
<path d="M73.9751 64.7957H64.7957V73.975H73.9751V64.7957Z" fill="white"/>
<path d="M83.1546 64.7957H73.9752V73.975H83.1546V64.7957Z" fill="black"/>
<path d="M92.3339 64.7957H83.1545V73.975H92.3339V64.7957Z" fill="white"/>
<path d="M101.513 64.7957H92.3339V73.975H101.513V64.7957Z" fill="black"/>
<path d="M110.693 64.7957H101.513V73.975H110.693V64.7957Z" fill="black"/>
<path d="M119.872 64.7957H110.693V73.975H119.872V64.7957Z" fill="black"/>
<path d="M129.052 64.7957H119.872V73.975H129.052V64.7957Z" fill="white"/>
<path d="M138.231 64.7957H129.052V73.975H138.231V64.7957Z" fill="white"/>
<path d="M147.41 64.7957H138.231V73.975H147.41V64.7957Z" fill="white"/>
<path d="M156.59 64.7957H147.41V73.975H156.59V64.7957Z" fill="black"/>
<path d="M165.769 64.7957H156.59V73.975H165.769V64.7957Z" fill="black"/>
<path d="M174.948 64.7957H165.769V73.975H174.948V64.7957Z" fill="white"/>
<path d="M184.128 64.7957H174.948V73.975H184.128V64.7957Z" fill="black"/>
<path d="M193.307 64.7957H184.128V73.975H193.307V64.7957Z" fill="white"/>
<path d="M202.487 64.7957H193.307V73.975H202.487V64.7957Z" fill="black"/>
<path d="M211.666 64.7957H202.487V73.975H211.666V64.7957Z" fill="black"/>
<path d="M220.845 64.7957H211.666V73.975H220.845V64.7957Z" fill="white"/>
<path d="M230.025 64.7957H220.845V73.975H230.025V64.7957Z" fill="black"/>
<path d="M239.204 64.7957H230.025V73.975H239.204V64.7957Z" fill="white"/>
<path d="M248.384 64.7957H239.204V73.975H248.384V64.7957Z" fill="white"/>
<path d="M257.563 64.7957H248.384V73.975H257.563V64.7957Z" fill="white"/>
<path d="M266.742 64.7957H257.563V73.975H266.742V64.7957Z" fill="white"/>
<path d="M275.922 64.7957H266.742V73.975H275.922V64.7957Z" fill="white"/>
<path d="M285.101 64.7957H275.922V73.975H285.101V64.7957Z" fill="black"/>
<path d="M28.0782 73.9751H18.8988V83.1545H28.0782V73.9751Z" fill="black"/>
<path d="M37.2575 73.9751H28.0781V83.1545H37.2575V73.9751Z" fill="black"/>
<path d="M46.437 73.9751H37.2576V83.1545H46.437V73.9751Z" fill="black"/>
<path d="M55.6163 73.9751H46.4369V83.1545H55.6163V73.9751Z" fill="black"/>
<path d="M64.7957 73.9751H55.6163V83.1545H64.7957V73.9751Z" fill="black"/>
<path d="M73.9751 73.9751H64.7957V83.1545H73.9751V73.9751Z" fill="black"/>
<path d="M83.1546 73.9751H73.9752V83.1545H83.1546V73.9751Z" fill="black"/>
<path d="M92.3339 73.9751H83.1545V83.1545H92.3339V73.9751Z" fill="white"/>
<path d="M101.513 73.9751H92.3339V83.1545H101.513V73.9751Z" fill="black"/>
<path d="M110.693 73.9751H101.513V83.1545H110.693V73.9751Z" fill="white"/>
<path d="M119.872 73.9751H110.693V83.1545H119.872V73.9751Z" fill="black"/>
<path d="M129.052 73.9751H119.872V83.1545H129.052V73.9751Z" fill="white"/>
<path d="M138.231 73.9751H129.052V83.1545H138.231V73.9751Z" fill="black"/>
<path d="M147.41 73.9751H138.231V83.1545H147.41V73.9751Z" fill="white"/>
<path d="M156.59 73.9751H147.41V83.1545H156.59V73.9751Z" fill="black"/>
<path d="M165.769 73.9751H156.59V83.1545H165.769V73.9751Z" fill="white"/>
<path d="M174.948 73.9751H165.769V83.1545H174.948V73.9751Z" fill="black"/>
<path d="M184.128 73.9751H174.948V83.1545H184.128V73.9751Z" fill="white"/>
<path d="M193.307 73.9751H184.128V83.1545H193.307V73.9751Z" fill="black"/>
<path d="M202.487 73.9751H193.307V83.1545H202.487V73.9751Z" fill="white"/>
<path d="M211.666 73.9751H202.487V83.1545H211.666V73.9751Z" fill="black"/>
<path d="M220.845 73.9751H211.666V83.1545H220.845V73.9751Z" fill="white"/>
<path d="M230.025 73.9751H220.845V83.1545H230.025V73.9751Z" fill="black"/>
<path d="M239.204 73.9751H230.025V83.1545H239.204V73.9751Z" fill="black"/>
<path d="M248.384 73.9751H239.204V83.1545H248.384V73.9751Z" fill="black"/>
<path d="M257.563 73.9751H248.384V83.1545H257.563V73.9751Z" fill="black"/>
<path d="M266.742 73.9751H257.563V83.1545H266.742V73.9751Z" fill="black"/>
<path d="M275.922 73.9751H266.742V83.1545H275.922V73.9751Z" fill="black"/>
<path d="M285.101 73.9751H275.922V83.1545H285.101V73.9751Z" fill="black"/>
<path d="M28.0782 83.1545H18.8988V92.3339H28.0782V83.1545Z" fill="white"/>
<path d="M37.2575 83.1545H28.0781V92.3339H37.2575V83.1545Z" fill="white"/>
<path d="M46.437 83.1545H37.2576V92.3339H46.437V83.1545Z" fill="white"/>
<path d="M55.6163 83.1545H46.4369V92.3339H55.6163V83.1545Z" fill="white"/>
<path d="M64.7957 83.1545H55.6163V92.3339H64.7957V83.1545Z" fill="white"/>
<path d="M73.9751 83.1545H64.7957V92.3339H73.9751V83.1545Z" fill="white"/>
<path d="M83.1546 83.1545H73.9752V92.3339H83.1546V83.1545Z" fill="white"/>
<path d="M92.3339 83.1545H83.1545V92.3339H92.3339V83.1545Z" fill="white"/>
<path d="M101.513 83.1545H92.3339V92.3339H101.513V83.1545Z" fill="black"/>
<path d="M110.693 83.1545H101.513V92.3339H110.693V83.1545Z" fill="black"/>
<path d="M119.872 83.1545H110.693V92.3339H119.872V83.1545Z" fill="white"/>
<path d="M129.052 83.1545H119.872V92.3339H129.052V83.1545Z" fill="black"/>
<path d="M138.231 83.1545H129.052V92.3339H138.231V83.1545Z" fill="black"/>
<path d="M147.41 83.1545H138.231V92.3339H147.41V83.1545Z" fill="white"/>
<path d="M156.59 83.1545H147.41V92.3339H156.59V83.1545Z" fill="white"/>
<path d="M165.769 83.1545H156.59V92.3339H165.769V83.1545Z" fill="white"/>
<path d="M174.948 83.1545H165.769V92.3339H174.948V83.1545Z" fill="black"/>
<path d="M184.128 83.1545H174.948V92.3339H184.128V83.1545Z" fill="black"/>
<path d="M193.307 83.1545H184.128V92.3339H193.307V83.1545Z" fill="black"/>
<path d="M202.487 83.1545H193.307V92.3339H202.487V83.1545Z" fill="white"/>
<path d="M211.666 83.1545H202.487V92.3339H211.666V83.1545Z" fill="black"/>
<path d="M220.845 83.1545H211.666V92.3339H220.845V83.1545Z" fill="white"/>
<path d="M230.025 83.1545H220.845V92.3339H230.025V83.1545Z" fill="white"/>
<path d="M239.204 83.1545H230.025V92.3339H239.204V83.1545Z" fill="white"/>
<path d="M248.384 83.1545H239.204V92.3339H248.384V83.1545Z" fill="white"/>
<path d="M257.563 83.1545H248.384V92.3339H257.563V83.1545Z" fill="white"/>
<path d="M266.742 83.1545H257.563V92.3339H266.742V83.1545Z" fill="white"/>
<path d="M275.922 83.1545H266.742V92.3339H275.922V83.1545Z" fill="white"/>
<path d="M285.101 83.1545H275.922V92.3339H285.101V83.1545Z" fill="white"/>
<path d="M28.0782 92.334H18.8988V101.513H28.0782V92.334Z" fill="black"/>
<path d="M37.2575 92.334H28.0781V101.513H37.2575V92.334Z" fill="black"/>
<path d="M46.437 92.334H37.2576V101.513H46.437V92.334Z" fill="white"/>
<path d="M55.6163 92.334H46.4369V101.513H55.6163V92.334Z" fill="black"/>
<path d="M64.7957 92.334H55.6163V101.513H64.7957V92.334Z" fill="white"/>
<path d="M73.9751 92.334H64.7957V101.513H73.9751V92.334Z" fill="white"/>
<path d="M83.1546 92.334H73.9752V101.513H83.1546V92.334Z" fill="black"/>
<path d="M92.3339 92.334H83.1545V101.513H92.3339V92.334Z" fill="black"/>
<path d="M101.513 92.334H92.3339V101.513H101.513V92.334Z" fill="white"/>
<path d="M110.693 92.334H101.513V101.513H110.693V92.334Z" fill="white"/>
<path d="M119.872 92.334H110.693V101.513H119.872V92.334Z" fill="black"/>
<path d="M129.052 92.334H119.872V101.513H129.052V92.334Z" fill="black"/>
<path d="M138.231 92.334H129.052V101.513H138.231V92.334Z" fill="white"/>
<path d="M147.41 92.334H138.231V101.513H147.41V92.334Z" fill="black"/>
<path d="M156.59 92.334H147.41V101.513H156.59V92.334Z" fill="white"/>
<path d="M165.769 92.334H156.59V101.513H165.769V92.334Z" fill="black"/>
<path d="M174.948 92.334H165.769V101.513H174.948V92.334Z" fill="white"/>
<path d="M184.128 92.334H174.948V101.513H184.128V92.334Z" fill="white"/>
<path d="M193.307 92.334H184.128V101.513H193.307V92.334Z" fill="black"/>
<path d="M202.487 92.334H193.307V101.513H202.487V92.334Z" fill="black"/>
<path d="M211.666 92.334H202.487V101.513H211.666V92.334Z" fill="white"/>
<path d="M220.845 92.334H211.666V101.513H220.845V92.334Z" fill="white"/>
<path d="M230.025 92.334H220.845V101.513H230.025V92.334Z" fill="black"/>
<path d="M239.204 92.334H230.025V101.513H239.204V92.334Z" fill="black"/>
<path d="M248.384 92.334H239.204V101.513H248.384V92.334Z" fill="black"/>
<path d="M257.563 92.334H248.384V101.513H257.563V92.334Z" fill="white"/>
<path d="M266.742 92.334H257.563V101.513H266.742V92.334Z" fill="black"/>
<path d="M275.922 92.334H266.742V101.513H275.922V92.334Z" fill="black"/>
<path d="M285.101 92.334H275.922V101.513H285.101V92.334Z" fill="white"/>
<path d="M28.0782 101.513H18.8988V110.693H28.0782V101.513Z" fill="white"/>
<path d="M37.2575 101.513H28.0781V110.693H37.2575V101.513Z" fill="black"/>
<path d="M46.437 101.513H37.2576V110.693H46.437V101.513Z" fill="black"/>
<path d="M55.6163 101.513H46.4369V110.693H55.6163V101.513Z" fill="black"/>
<path d="M64.7957 101.513H55.6163V110.693H64.7957V101.513Z" fill="black"/>
<path d="M73.9751 101.513H64.7957V110.693H73.9751V101.513Z" fill="white"/>
<path d="M83.1546 101.513H73.9752V110.693H83.1546V101.513Z" fill="white"/>
<path d="M92.3339 101.513H83.1545V110.693H92.3339V101.513Z" fill="black"/>
<path d="M101.513 101.513H92.3339V110.693H101.513V101.513Z" fill="black"/>
<path d="M110.693 101.513H101.513V110.693H110.693V101.513Z" fill="white"/>
<path d="M119.872 101.513H110.693V110.693H119.872V101.513Z" fill="white"/>
<path d="M129.052 101.513H119.872V110.693H129.052V101.513Z" fill="white"/>
<path d="M138.231 101.513H129.052V110.693H138.231V101.513Z" fill="black"/>
<path d="M147.41 101.513H138.231V110.693H147.41V101.513Z" fill="black"/>
<path d="M156.59 101.513H147.41V110.693H156.59V101.513Z" fill="black"/>
<path d="M165.769 101.513H156.59V110.693H165.769V101.513Z" fill="white"/>
<path d="M174.948 101.513H165.769V110.693H174.948V101.513Z" fill="black"/>
<path d="M184.128 101.513H174.948V110.693H184.128V101.513Z" fill="white"/>
<path d="M193.307 101.513H184.128V110.693H193.307V101.513Z" fill="white"/>
<path d="M202.487 101.513H193.307V110.693H202.487V101.513Z" fill="white"/>
<path d="M211.666 101.513H202.487V110.693H211.666V101.513Z" fill="black"/>
<path d="M220.845 101.513H211.666V110.693H220.845V101.513Z" fill="white"/>
<path d="M230.025 101.513H220.845V110.693H230.025V101.513Z" fill="black"/>
<path d="M239.204 101.513H230.025V110.693H239.204V101.513Z" fill="white"/>
<path d="M248.384 101.513H239.204V110.693H248.384V101.513Z" fill="white"/>
<path d="M257.563 101.513H248.384V110.693H257.563V101.513Z" fill="black"/>
<path d="M266.742 101.513H257.563V110.693H266.742V101.513Z" fill="white"/>
<path d="M275.922 101.513H266.742V110.693H275.922V101.513Z" fill="white"/>
<path d="M285.101 101.513H275.922V110.693H285.101V101.513Z" fill="black"/>
<path d="M28.0782 110.693H18.8988V119.872H28.0782V110.693Z" fill="black"/>
<path d="M37.2575 110.693H28.0781V119.872H37.2575V110.693Z" fill="black"/>
<path d="M46.437 110.693H37.2576V119.872H46.437V110.693Z" fill="white"/>
<path d="M55.6163 110.693H46.4369V119.872H55.6163V110.693Z" fill="white"/>
<path d="M64.7957 110.693H55.6163V119.872H64.7957V110.693Z" fill="black"/>
<path d="M73.9751 110.693H64.7957V119.872H73.9751V110.693Z" fill="white"/>
<path d="M83.1546 110.693H73.9752V119.872H83.1546V110.693Z" fill="black"/>
<path d="M92.3339 110.693H83.1545V119.872H92.3339V110.693Z" fill="black"/>
<path d="M101.513 110.693H92.3339V119.872H101.513V110.693Z" fill="black"/>
<path d="M110.693 110.693H101.513V119.872H110.693V110.693Z" fill="black"/>
<path d="M119.872 110.693H110.693V119.872H119.872V110.693Z" fill="black"/>
<path d="M129.052 110.693H119.872V119.872H129.052V110.693Z" fill="white"/>
<path d="M138.231 110.693H129.052V119.872H138.231V110.693Z" fill="white"/>
<path d="M147.41 110.693H138.231V119.872H147.41V110.693Z" fill="white"/>
<path d="M156.59 110.693H147.41V119.872H156.59V110.693Z" fill="white"/>
<path d="M165.769 110.693H156.59V119.872H165.769V110.693Z" fill="white"/>
<path d="M174.948 110.693H165.769V119.872H174.948V110.693Z" fill="black"/>
<path d="M184.128 110.693H174.948V119.872H184.128V110.693Z" fill="black"/>
<path d="M193.307 110.693H184.128V119.872H193.307V110.693Z" fill="white"/>
<path d="M202.487 110.693H193.307V119.872H202.487V110.693Z" fill="black"/>
<path d="M211.666 110.693H202.487V119.872H211.666V110.693Z" fill="white"/>
<path d="M220.845 110.693H211.666V119.872H220.845V110.693Z" fill="black"/>
<path d="M230.025 110.693H220.845V119.872H230.025V110.693Z" fill="white"/>
<path d="M239.204 110.693H230.025V119.872H239.204V110.693Z" fill="white"/>
<path d="M248.384 110.693H239.204V119.872H248.384V110.693Z" fill="white"/>
<path d="M257.563 110.693H248.384V119.872H257.563V110.693Z" fill="black"/>
<path d="M266.742 110.693H257.563V119.872H266.742V110.693Z" fill="black"/>
<path d="M275.922 110.693H266.742V119.872H275.922V110.693Z" fill="black"/>
<path d="M285.101 110.693H275.922V119.872H285.101V110.693Z" fill="white"/>
<path d="M28.0782 119.872H18.8988V129.051H28.0782V119.872Z" fill="white"/>
<path d="M37.2575 119.872H28.0781V129.051H37.2575V119.872Z" fill="white"/>
<path d="M46.437 119.872H37.2576V129.051H46.437V119.872Z" fill="white"/>
<path d="M55.6163 119.872H46.4369V129.051H55.6163V119.872Z" fill="white"/>
<path d="M64.7957 119.872H55.6163V129.051H64.7957V119.872Z" fill="white"/>
<path d="M73.9751 119.872H64.7957V129.051H73.9751V119.872Z" fill="black"/>
<path d="M83.1546 119.872H73.9752V129.051H83.1546V119.872Z" fill="white"/>
<path d="M92.3339 119.872H83.1545V129.051H92.3339V119.872Z" fill="white"/>
<path d="M101.513 119.872H92.3339V129.051H101.513V119.872Z" fill="white"/>
<path d="M110.693 119.872H101.513V129.051H110.693V119.872Z" fill="white"/>
<path d="M119.872 119.872H110.693V129.051H119.872V119.872Z" fill="white"/>
<path d="M129.052 119.872H119.872V129.051H129.052V119.872Z" fill="white"/>
<path d="M138.231 119.872H129.052V129.051H138.231V119.872Z" fill="black"/>
<path d="M147.41 119.872H138.231V129.051H147.41V119.872Z" fill="black"/>
<path d="M156.59 119.872H147.41V129.051H156.59V119.872Z" fill="black"/>
<path d="M165.769 119.872H156.59V129.051H165.769V119.872Z" fill="white"/>
<path d="M174.948 119.872H165.769V129.051H174.948V119.872Z" fill="black"/>
<path d="M184.128 119.872H174.948V129.051H184.128V119.872Z" fill="white"/>
<path d="M193.307 119.872H184.128V129.051H193.307V119.872Z" fill="white"/>
<path d="M202.487 119.872H193.307V129.051H202.487V119.872Z" fill="black"/>
<path d="M211.666 119.872H202.487V129.051H211.666V119.872Z" fill="white"/>
<path d="M220.845 119.872H211.666V129.051H220.845V119.872Z" fill="black"/>
<path d="M230.025 119.872H220.845V129.051H230.025V119.872Z" fill="white"/>
<path d="M239.204 119.872H230.025V129.051H239.204V119.872Z" fill="white"/>
<path d="M248.384 119.872H239.204V129.051H248.384V119.872Z" fill="white"/>
<path d="M257.563 119.872H248.384V129.051H257.563V119.872Z" fill="white"/>
<path d="M266.742 119.872H257.563V129.051H266.742V119.872Z" fill="black"/>
<path d="M275.922 119.872H266.742V129.051H275.922V119.872Z" fill="black"/>
<path d="M285.101 119.872H275.922V129.051H285.101V119.872Z" fill="white"/>
<path d="M28.0782 129.052H18.8988V138.231H28.0782V129.052Z" fill="white"/>
<path d="M37.2575 129.052H28.0781V138.231H37.2575V129.052Z" fill="black"/>
<path d="M46.437 129.052H37.2576V138.231H46.437V129.052Z" fill="white"/>
<path d="M55.6163 129.052H46.4369V138.231H55.6163V129.052Z" fill="white"/>
<path d="M64.7957 129.052H55.6163V138.231H64.7957V129.052Z" fill="black"/>
<path d="M73.9751 129.052H64.7957V138.231H73.9751V129.052Z" fill="black"/>
<path d="M83.1546 129.052H73.9752V138.231H83.1546V129.052Z" fill="black"/>
<path d="M92.3339 129.052H83.1545V138.231H92.3339V129.052Z" fill="black"/>
<path d="M101.513 129.052H92.3339V138.231H101.513V129.052Z" fill="black"/>
<path d="M110.693 129.052H101.513V138.231H110.693V129.052Z" fill="white"/>
<path d="M119.872 129.052H110.693V138.231H119.872V129.052Z" fill="white"/>
<path d="M129.052 129.052H119.872V138.231H129.052V129.052Z" fill="black"/>
<path d="M138.231 129.052H129.052V138.231H138.231V129.052Z" fill="white"/>
<path d="M147.41 129.052H138.231V138.231H147.41V129.052Z" fill="black"/>
<path d="M156.59 129.052H147.41V138.231H156.59V129.052Z" fill="white"/>
<path d="M165.769 129.052H156.59V138.231H165.769V129.052Z" fill="white"/>
<path d="M174.948 129.052H165.769V138.231H174.948V129.052Z" fill="black"/>
<path d="M184.128 129.052H174.948V138.231H184.128V129.052Z" fill="black"/>
<path d="M193.307 129.052H184.128V138.231H193.307V129.052Z" fill="white"/>
<path d="M202.487 129.052H193.307V138.231H202.487V129.052Z" fill="white"/>
<path d="M211.666 129.052H202.487V138.231H211.666V129.052Z" fill="black"/>
<path d="M220.845 129.052H211.666V138.231H220.845V129.052Z" fill="black"/>
<path d="M230.025 129.052H220.845V138.231H230.025V129.052Z" fill="black"/>
<path d="M239.204 129.052H230.025V138.231H239.204V129.052Z" fill="black"/>
<path d="M248.384 129.052H239.204V138.231H248.384V129.052Z" fill="white"/>
<path d="M257.563 129.052H248.384V138.231H257.563V129.052Z" fill="black"/>
<path d="M266.742 129.052H257.563V138.231H266.742V129.052Z" fill="white"/>
<path d="M275.922 129.052H266.742V138.231H275.922V129.052Z" fill="black"/>
<path d="M285.101 129.052H275.922V138.231H285.101V129.052Z" fill="black"/>
<path d="M28.0782 138.231H18.8988V147.41H28.0782V138.231Z" fill="black"/>
<path d="M37.2575 138.231H28.0781V147.41H37.2575V138.231Z" fill="white"/>
<path d="M46.437 138.231H37.2576V147.41H46.437V138.231Z" fill="white"/>
<path d="M55.6163 138.231H46.4369V147.41H55.6163V138.231Z" fill="white"/>
<path d="M64.7957 138.231H55.6163V147.41H64.7957V138.231Z" fill="white"/>
<path d="M73.9751 138.231H64.7957V147.41H73.9751V138.231Z" fill="black"/>
<path d="M83.1546 138.231H73.9752V147.41H83.1546V138.231Z" fill="white"/>
<path d="M92.3339 138.231H83.1545V147.41H92.3339V138.231Z" fill="white"/>
<path d="M101.513 138.231H92.3339V147.41H101.513V138.231Z" fill="white"/>
<path d="M110.693 138.231H101.513V147.41H110.693V138.231Z" fill="black"/>
<path d="M119.872 138.231H110.693V147.41H119.872V138.231Z" fill="black"/>
<path d="M129.052 138.231H119.872V147.41H129.052V138.231Z" fill="white"/>
<path d="M138.231 138.231H129.052V147.41H138.231V138.231Z" fill="white"/>
<path d="M147.41 138.231H138.231V147.41H147.41V138.231Z" fill="white"/>
<path d="M156.59 138.231H147.41V147.41H156.59V138.231Z" fill="black"/>
<path d="M165.769 138.231H156.59V147.41H165.769V138.231Z" fill="white"/>
<path d="M174.948 138.231H165.769V147.41H174.948V138.231Z" fill="white"/>
<path d="M184.128 138.231H174.948V147.41H184.128V138.231Z" fill="white"/>
<path d="M193.307 138.231H184.128V147.41H193.307V138.231Z" fill="white"/>
<path d="M202.487 138.231H193.307V147.41H202.487V138.231Z" fill="black"/>
<path d="M211.666 138.231H202.487V147.41H211.666V138.231Z" fill="black"/>
<path d="M220.845 138.231H211.666V147.41H220.845V138.231Z" fill="black"/>
<path d="M230.025 138.231H220.845V147.41H230.025V138.231Z" fill="white"/>
<path d="M239.204 138.231H230.025V147.41H239.204V138.231Z" fill="white"/>
<path d="M248.384 138.231H239.204V147.41H248.384V138.231Z" fill="white"/>
<path d="M257.563 138.231H248.384V147.41H257.563V138.231Z" fill="white"/>
<path d="M266.742 138.231H257.563V147.41H266.742V138.231Z" fill="white"/>
<path d="M275.922 138.231H266.742V147.41H275.922V138.231Z" fill="white"/>
<path d="M285.101 138.231H275.922V147.41H285.101V138.231Z" fill="white"/>
<path d="M28.0782 147.41H18.8988V156.59H28.0782V147.41Z" fill="black"/>
<path d="M37.2575 147.41H28.0781V156.59H37.2575V147.41Z" fill="black"/>
<path d="M46.437 147.41H37.2576V156.59H46.437V147.41Z" fill="black"/>
<path d="M55.6163 147.41H46.4369V156.59H55.6163V147.41Z" fill="black"/>
<path d="M64.7957 147.41H55.6163V156.59H64.7957V147.41Z" fill="white"/>
<path d="M73.9751 147.41H64.7957V156.59H73.9751V147.41Z" fill="black"/>
<path d="M83.1546 147.41H73.9752V156.59H83.1546V147.41Z" fill="black"/>
<path d="M92.3339 147.41H83.1545V156.59H92.3339V147.41Z" fill="white"/>
<path d="M101.513 147.41H92.3339V156.59H101.513V147.41Z" fill="black"/>
<path d="M110.693 147.41H101.513V156.59H110.693V147.41Z" fill="black"/>
<path d="M119.872 147.41H110.693V156.59H119.872V147.41Z" fill="black"/>
<path d="M129.052 147.41H119.872V156.59H129.052V147.41Z" fill="black"/>
<path d="M138.231 147.41H129.052V156.59H138.231V147.41Z" fill="black"/>
<path d="M147.41 147.41H138.231V156.59H147.41V147.41Z" fill="white"/>
<path d="M156.59 147.41H147.41V156.59H156.59V147.41Z" fill="black"/>
<path d="M165.769 147.41H156.59V156.59H165.769V147.41Z" fill="white"/>
<path d="M174.948 147.41H165.769V156.59H174.948V147.41Z" fill="white"/>
<path d="M184.128 147.41H174.948V156.59H184.128V147.41Z" fill="black"/>
<path d="M193.307 147.41H184.128V156.59H193.307V147.41Z" fill="white"/>
<path d="M202.487 147.41H193.307V156.59H202.487V147.41Z" fill="white"/>
<path d="M211.666 147.41H202.487V156.59H211.666V147.41Z" fill="white"/>
<path d="M220.845 147.41H211.666V156.59H220.845V147.41Z" fill="white"/>
<path d="M230.025 147.41H220.845V156.59H230.025V147.41Z" fill="black"/>
<path d="M239.204 147.41H230.025V156.59H239.204V147.41Z" fill="white"/>
<path d="M248.384 147.41H239.204V156.59H248.384V147.41Z" fill="black"/>
<path d="M257.563 147.41H248.384V156.59H257.563V147.41Z" fill="black"/>
<path d="M266.742 147.41H257.563V156.59H266.742V147.41Z" fill="black"/>
<path d="M275.922 147.41H266.742V156.59H275.922V147.41Z" fill="black"/>
<path d="M285.101 147.41H275.922V156.59H285.101V147.41Z" fill="black"/>
<path d="M28.0782 156.59H18.8988V165.769H28.0782V156.59Z" fill="white"/>
<path d="M37.2575 156.59H28.0781V165.769H37.2575V156.59Z" fill="white"/>
<path d="M46.437 156.59H37.2576V165.769H46.437V156.59Z" fill="white"/>
<path d="M55.6163 156.59H46.4369V165.769H55.6163V156.59Z" fill="white"/>
<path d="M64.7957 156.59H55.6163V165.769H64.7957V156.59Z" fill="black"/>
<path d="M73.9751 156.59H64.7957V165.769H73.9751V156.59Z" fill="black"/>
<path d="M83.1546 156.59H73.9752V165.769H83.1546V156.59Z" fill="white"/>
<path d="M92.3339 156.59H83.1545V165.769H92.3339V156.59Z" fill="white"/>
<path d="M101.513 156.59H92.3339V165.769H101.513V156.59Z" fill="white"/>
<path d="M110.693 156.59H101.513V165.769H110.693V156.59Z" fill="black"/>
<path d="M119.872 156.59H110.693V165.769H119.872V156.59Z" fill="black"/>
<path d="M129.052 156.59H119.872V165.769H129.052V156.59Z" fill="white"/>
<path d="M138.231 156.59H129.052V165.769H138.231V156.59Z" fill="white"/>
<path d="M147.41 156.59H138.231V165.769H147.41V156.59Z" fill="black"/>
<path d="M156.59 156.59H147.41V165.769H156.59V156.59Z" fill="white"/>
<path d="M165.769 156.59H156.59V165.769H165.769V156.59Z" fill="white"/>
<path d="M174.948 156.59H165.769V165.769H174.948V156.59Z" fill="black"/>
<path d="M184.128 156.59H174.948V165.769H184.128V156.59Z" fill="black"/>
<path d="M193.307 156.59H184.128V165.769H193.307V156.59Z" fill="black"/>
<path d="M202.487 156.59H193.307V165.769H202.487V156.59Z" fill="white"/>
<path d="M211.666 156.59H202.487V165.769H211.666V156.59Z" fill="black"/>
<path d="M220.845 156.59H211.666V165.769H220.845V156.59Z" fill="black"/>
<path d="M230.025 156.59H220.845V165.769H230.025V156.59Z" fill="black"/>
<path d="M239.204 156.59H230.025V165.769H239.204V156.59Z" fill="black"/>
<path d="M248.384 156.59H239.204V165.769H248.384V156.59Z" fill="white"/>
<path d="M257.563 156.59H248.384V165.769H257.563V156.59Z" fill="black"/>
<path d="M266.742 156.59H257.563V165.769H266.742V156.59Z" fill="white"/>
<path d="M275.922 156.59H266.742V165.769H275.922V156.59Z" fill="black"/>
<path d="M285.101 156.59H275.922V165.769H285.101V156.59Z" fill="white"/>
<path d="M28.0782 165.769H18.8988V174.948H28.0782V165.769Z" fill="white"/>
<path d="M37.2575 165.769H28.0781V174.948H37.2575V165.769Z" fill="white"/>
<path d="M46.437 165.769H37.2576V174.948H46.437V165.769Z" fill="black"/>
<path d="M55.6163 165.769H46.4369V174.948H55.6163V165.769Z" fill="white"/>
<path d="M64.7957 165.769H55.6163V174.948H64.7957V165.769Z" fill="white"/>
<path d="M73.9751 165.769H64.7957V174.948H73.9751V165.769Z" fill="white"/>
<path d="M83.1546 165.769H73.9752V174.948H83.1546V165.769Z" fill="black"/>
<path d="M92.3339 165.769H83.1545V174.948H92.3339V165.769Z" fill="black"/>
<path d="M101.513 165.769H92.3339V174.948H101.513V165.769Z" fill="white"/>
<path d="M110.693 165.769H101.513V174.948H110.693V165.769Z" fill="black"/>
<path d="M119.872 165.769H110.693V174.948H119.872V165.769Z" fill="white"/>
<path d="M129.052 165.769H119.872V174.948H129.052V165.769Z" fill="white"/>
<path d="M138.231 165.769H129.052V174.948H138.231V165.769Z" fill="white"/>
<path d="M147.41 165.769H138.231V174.948H147.41V165.769Z" fill="white"/>
<path d="M156.59 165.769H147.41V174.948H156.59V165.769Z" fill="black"/>
<path d="M165.769 165.769H156.59V174.948H165.769V165.769Z" fill="black"/>
<path d="M174.948 165.769H165.769V174.948H174.948V165.769Z" fill="white"/>
<path d="M184.128 165.769H174.948V174.948H184.128V165.769Z" fill="black"/>
<path d="M193.307 165.769H184.128V174.948H193.307V165.769Z" fill="white"/>
<path d="M202.487 165.769H193.307V174.948H202.487V165.769Z" fill="white"/>
<path d="M211.666 165.769H202.487V174.948H211.666V165.769Z" fill="black"/>
<path d="M220.845 165.769H211.666V174.948H220.845V165.769Z" fill="black"/>
<path d="M230.025 165.769H220.845V174.948H230.025V165.769Z" fill="white"/>
<path d="M239.204 165.769H230.025V174.948H239.204V165.769Z" fill="white"/>
<path d="M248.384 165.769H239.204V174.948H248.384V165.769Z" fill="white"/>
<path d="M257.563 165.769H248.384V174.948H257.563V165.769Z" fill="white"/>
<path d="M266.742 165.769H257.563V174.948H266.742V165.769Z" fill="white"/>
<path d="M275.922 165.769H266.742V174.948H275.922V165.769Z" fill="black"/>
<path d="M285.101 165.769H275.922V174.948H285.101V165.769Z" fill="white"/>
<path d="M28.0782 174.948H18.8988V184.128H28.0782V174.948Z" fill="white"/>
<path d="M37.2575 174.948H28.0781V184.128H37.2575V174.948Z" fill="white"/>
<path d="M46.437 174.948H37.2576V184.128H46.437V174.948Z" fill="black"/>
<path d="M55.6163 174.948H46.4369V184.128H55.6163V174.948Z" fill="white"/>
<path d="M64.7957 174.948H55.6163V184.128H64.7957V174.948Z" fill="white"/>
<path d="M73.9751 174.948H64.7957V184.128H73.9751V174.948Z" fill="white"/>
<path d="M83.1546 174.948H73.9752V184.128H83.1546V174.948Z" fill="white"/>
<path d="M92.3339 174.948H83.1545V184.128H92.3339V174.948Z" fill="white"/>
<path d="M101.513 174.948H92.3339V184.128H101.513V174.948Z" fill="black"/>
<path d="M110.693 174.948H101.513V184.128H110.693V174.948Z" fill="white"/>
<path d="M119.872 174.948H110.693V184.128H119.872V174.948Z" fill="black"/>
<path d="M129.052 174.948H119.872V184.128H129.052V174.948Z" fill="black"/>
<path d="M138.231 174.948H129.052V184.128H138.231V174.948Z" fill="black"/>
<path d="M147.41 174.948H138.231V184.128H147.41V174.948Z" fill="white"/>
<path d="M156.59 174.948H147.41V184.128H156.59V174.948Z" fill="white"/>
<path d="M165.769 174.948H156.59V184.128H165.769V174.948Z" fill="white"/>
<path d="M174.948 174.948H165.769V184.128H174.948V174.948Z" fill="white"/>
<path d="M184.128 174.948H174.948V184.128H184.128V174.948Z" fill="white"/>
<path d="M193.307 174.948H184.128V184.128H193.307V174.948Z" fill="white"/>
<path d="M202.487 174.948H193.307V184.128H202.487V174.948Z" fill="white"/>
<path d="M211.666 174.948H202.487V184.128H211.666V174.948Z" fill="white"/>
<path d="M220.845 174.948H211.666V184.128H220.845V174.948Z" fill="black"/>
<path d="M230.025 174.948H220.845V184.128H230.025V174.948Z" fill="black"/>
<path d="M239.204 174.948H230.025V184.128H239.204V174.948Z" fill="black"/>
<path d="M248.384 174.948H239.204V184.128H248.384V174.948Z" fill="white"/>
<path d="M257.563 174.948H248.384V184.128H257.563V174.948Z" fill="black"/>
<path d="M266.742 174.948H257.563V184.128H266.742V174.948Z" fill="white"/>
<path d="M275.922 174.948H266.742V184.128H275.922V174.948Z" fill="white"/>
<path d="M285.101 174.948H275.922V184.128H285.101V174.948Z" fill="black"/>
<path d="M28.0782 184.128H18.8988V193.307H28.0782V184.128Z" fill="black"/>
<path d="M37.2575 184.128H28.0781V193.307H37.2575V184.128Z" fill="white"/>
<path d="M46.437 184.128H37.2576V193.307H46.437V184.128Z" fill="white"/>
<path d="M55.6163 184.128H46.4369V193.307H55.6163V184.128Z" fill="black"/>
<path d="M64.7957 184.128H55.6163V193.307H64.7957V184.128Z" fill="white"/>
<path d="M73.9751 184.128H64.7957V193.307H73.9751V184.128Z" fill="black"/>
<path d="M83.1546 184.128H73.9752V193.307H83.1546V184.128Z" fill="black"/>
<path d="M92.3339 184.128H83.1545V193.307H92.3339V184.128Z" fill="white"/>
<path d="M101.513 184.128H92.3339V193.307H101.513V184.128Z" fill="black"/>
<path d="M110.693 184.128H101.513V193.307H110.693V184.128Z" fill="black"/>
<path d="M119.872 184.128H110.693V193.307H119.872V184.128Z" fill="white"/>
<path d="M129.052 184.128H119.872V193.307H129.052V184.128Z" fill="white"/>
<path d="M138.231 184.128H129.052V193.307H138.231V184.128Z" fill="white"/>
<path d="M147.41 184.128H138.231V193.307H147.41V184.128Z" fill="white"/>
<path d="M156.59 184.128H147.41V193.307H156.59V184.128Z" fill="black"/>
<path d="M165.769 184.128H156.59V193.307H165.769V184.128Z" fill="white"/>
<path d="M174.948 184.128H165.769V193.307H174.948V184.128Z" fill="white"/>
<path d="M184.128 184.128H174.948V193.307H184.128V184.128Z" fill="white"/>
<path d="M193.307 184.128H184.128V193.307H193.307V184.128Z" fill="white"/>
<path d="M202.487 184.128H193.307V193.307H202.487V184.128Z" fill="white"/>
<path d="M211.666 184.128H202.487V193.307H211.666V184.128Z" fill="white"/>
<path d="M220.845 184.128H211.666V193.307H220.845V184.128Z" fill="white"/>
<path d="M230.025 184.128H220.845V193.307H230.025V184.128Z" fill="white"/>
<path d="M239.204 184.128H230.025V193.307H239.204V184.128Z" fill="black"/>
<path d="M248.384 184.128H239.204V193.307H248.384V184.128Z" fill="black"/>
<path d="M257.563 184.128H248.384V193.307H257.563V184.128Z" fill="white"/>
<path d="M266.742 184.128H257.563V193.307H266.742V184.128Z" fill="white"/>
<path d="M275.922 184.128H266.742V193.307H275.922V184.128Z" fill="black"/>
<path d="M285.101 184.128H275.922V193.307H285.101V184.128Z" fill="black"/>
<path d="M28.0782 193.307H18.8988V202.487H28.0782V193.307Z" fill="white"/>
<path d="M37.2575 193.307H28.0781V202.487H37.2575V193.307Z" fill="white"/>
<path d="M46.437 193.307H37.2576V202.487H46.437V193.307Z" fill="black"/>
<path d="M55.6163 193.307H46.4369V202.487H55.6163V193.307Z" fill="white"/>
<path d="M64.7957 193.307H55.6163V202.487H64.7957V193.307Z" fill="white"/>
<path d="M73.9751 193.307H64.7957V202.487H73.9751V193.307Z" fill="black"/>
<path d="M83.1546 193.307H73.9752V202.487H83.1546V193.307Z" fill="white"/>
<path d="M92.3339 193.307H83.1545V202.487H92.3339V193.307Z" fill="white"/>
<path d="M101.513 193.307H92.3339V202.487H101.513V193.307Z" fill="white"/>
<path d="M110.693 193.307H101.513V202.487H110.693V193.307Z" fill="black"/>
<path d="M119.872 193.307H110.693V202.487H119.872V193.307Z" fill="white"/>
<path d="M129.052 193.307H119.872V202.487H129.052V193.307Z" fill="black"/>
<path d="M138.231 193.307H129.052V202.487H138.231V193.307Z" fill="white"/>
<path d="M147.41 193.307H138.231V202.487H147.41V193.307Z" fill="white"/>
<path d="M156.59 193.307H147.41V202.487H156.59V193.307Z" fill="black"/>
<path d="M165.769 193.307H156.59V202.487H165.769V193.307Z" fill="black"/>
<path d="M174.948 193.307H165.769V202.487H174.948V193.307Z" fill="white"/>
<path d="M184.128 193.307H174.948V202.487H184.128V193.307Z" fill="black"/>
<path d="M193.307 193.307H184.128V202.487H193.307V193.307Z" fill="black"/>
<path d="M202.487 193.307H193.307V202.487H202.487V193.307Z" fill="black"/>
<path d="M211.666 193.307H202.487V202.487H211.666V193.307Z" fill="black"/>
<path d="M220.845 193.307H211.666V202.487H220.845V193.307Z" fill="white"/>
<path d="M230.025 193.307H220.845V202.487H230.025V193.307Z" fill="black"/>
<path d="M239.204 193.307H230.025V202.487H239.204V193.307Z" fill="white"/>
<path d="M248.384 193.307H239.204V202.487H248.384V193.307Z" fill="white"/>
<path d="M257.563 193.307H248.384V202.487H257.563V193.307Z" fill="white"/>
<path d="M266.742 193.307H257.563V202.487H266.742V193.307Z" fill="white"/>
<path d="M275.922 193.307H266.742V202.487H275.922V193.307Z" fill="black"/>
<path d="M285.101 193.307H275.922V202.487H285.101V193.307Z" fill="black"/>
<path d="M28.0782 202.487H18.8988V211.666H28.0782V202.487Z" fill="black"/>
<path d="M37.2575 202.487H28.0781V211.666H37.2575V202.487Z" fill="white"/>
<path d="M46.437 202.487H37.2576V211.666H46.437V202.487Z" fill="white"/>
<path d="M55.6163 202.487H46.4369V211.666H55.6163V202.487Z" fill="white"/>
<path d="M64.7957 202.487H55.6163V211.666H64.7957V202.487Z" fill="black"/>
<path d="M73.9751 202.487H64.7957V211.666H73.9751V202.487Z" fill="black"/>
<path d="M83.1546 202.487H73.9752V211.666H83.1546V202.487Z" fill="black"/>
<path d="M92.3339 202.487H83.1545V211.666H92.3339V202.487Z" fill="black"/>
<path d="M101.513 202.487H92.3339V211.666H101.513V202.487Z" fill="white"/>
<path d="M110.693 202.487H101.513V211.666H110.693V202.487Z" fill="black"/>
<path d="M119.872 202.487H110.693V211.666H119.872V202.487Z" fill="black"/>
<path d="M129.052 202.487H119.872V211.666H129.052V202.487Z" fill="black"/>
<path d="M138.231 202.487H129.052V211.666H138.231V202.487Z" fill="white"/>
<path d="M147.41 202.487H138.231V211.666H147.41V202.487Z" fill="black"/>
<path d="M156.59 202.487H147.41V211.666H156.59V202.487Z" fill="white"/>
<path d="M165.769 202.487H156.59V211.666H165.769V202.487Z" fill="white"/>
<path d="M174.948 202.487H165.769V211.666H174.948V202.487Z" fill="black"/>
<path d="M184.128 202.487H174.948V211.666H184.128V202.487Z" fill="white"/>
<path d="M193.307 202.487H184.128V211.666H193.307V202.487Z" fill="black"/>
<path d="M202.487 202.487H193.307V211.666H202.487V202.487Z" fill="black"/>
<path d="M211.666 202.487H202.487V211.666H211.666V202.487Z" fill="black"/>
<path d="M220.845 202.487H211.666V211.666H220.845V202.487Z" fill="black"/>
<path d="M230.025 202.487H220.845V211.666H230.025V202.487Z" fill="black"/>
<path d="M239.204 202.487H230.025V211.666H239.204V202.487Z" fill="black"/>
<path d="M248.384 202.487H239.204V211.666H248.384V202.487Z" fill="black"/>
<path d="M257.563 202.487H248.384V211.666H257.563V202.487Z" fill="white"/>
<path d="M266.742 202.487H257.563V211.666H266.742V202.487Z" fill="black"/>
<path d="M275.922 202.487H266.742V211.666H275.922V202.487Z" fill="white"/>
<path d="M285.101 202.487H275.922V211.666H285.101V202.487Z" fill="white"/>
<path d="M28.0782 211.666H18.8988V220.845H28.0782V211.666Z" fill="white"/>
<path d="M37.2575 211.666H28.0781V220.845H37.2575V211.666Z" fill="white"/>
<path d="M46.437 211.666H37.2576V220.845H46.437V211.666Z" fill="white"/>
<path d="M55.6163 211.666H46.4369V220.845H55.6163V211.666Z" fill="white"/>
<path d="M64.7957 211.666H55.6163V220.845H64.7957V211.666Z" fill="white"/>
<path d="M73.9751 211.666H64.7957V220.845H73.9751V211.666Z" fill="white"/>
<path d="M83.1546 211.666H73.9752V220.845H83.1546V211.666Z" fill="white"/>
<path d="M92.3339 211.666H83.1545V220.845H92.3339V211.666Z" fill="white"/>
<path d="M101.513 211.666H92.3339V220.845H101.513V211.666Z" fill="black"/>
<path d="M110.693 211.666H101.513V220.845H110.693V211.666Z" fill="black"/>
<path d="M119.872 211.666H110.693V220.845H119.872V211.666Z" fill="white"/>
<path d="M129.052 211.666H119.872V220.845H129.052V211.666Z" fill="white"/>
<path d="M138.231 211.666H129.052V220.845H138.231V211.666Z" fill="black"/>
<path d="M147.41 211.666H138.231V220.845H147.41V211.666Z" fill="white"/>
<path d="M156.59 211.666H147.41V220.845H156.59V211.666Z" fill="black"/>
<path d="M165.769 211.666H156.59V220.845H165.769V211.666Z" fill="black"/>
<path d="M174.948 211.666H165.769V220.845H174.948V211.666Z" fill="black"/>
<path d="M184.128 211.666H174.948V220.845H184.128V211.666Z" fill="white"/>
<path d="M193.307 211.666H184.128V220.845H193.307V211.666Z" fill="white"/>
<path d="M202.487 211.666H193.307V220.845H202.487V211.666Z" fill="black"/>
<path d="M211.666 211.666H202.487V220.845H211.666V211.666Z" fill="black"/>
<path d="M220.845 211.666H211.666V220.845H220.845V211.666Z" fill="white"/>
<path d="M230.025 211.666H220.845V220.845H230.025V211.666Z" fill="white"/>
<path d="M239.204 211.666H230.025V220.845H239.204V211.666Z" fill="white"/>
<path d="M248.384 211.666H239.204V220.845H248.384V211.666Z" fill="black"/>
<path d="M257.563 211.666H248.384V220.845H257.563V211.666Z" fill="white"/>
<path d="M266.742 211.666H257.563V220.845H266.742V211.666Z" fill="black"/>
<path d="M275.922 211.666H266.742V220.845H275.922V211.666Z" fill="black"/>
<path d="M285.101 211.666H275.922V220.845H285.101V211.666Z" fill="black"/>
<path d="M28.0782 220.845H18.8988V230.025H28.0782V220.845Z" fill="black"/>
<path d="M37.2575 220.845H28.0781V230.025H37.2575V220.845Z" fill="black"/>
<path d="M46.437 220.845H37.2576V230.025H46.437V220.845Z" fill="black"/>
<path d="M55.6163 220.845H46.4369V230.025H55.6163V220.845Z" fill="black"/>
<path d="M64.7957 220.845H55.6163V230.025H64.7957V220.845Z" fill="black"/>
<path d="M73.9751 220.845H64.7957V230.025H73.9751V220.845Z" fill="black"/>
<path d="M83.1546 220.845H73.9752V230.025H83.1546V220.845Z" fill="black"/>
<path d="M92.3339 220.845H83.1545V230.025H92.3339V220.845Z" fill="white"/>
<path d="M101.513 220.845H92.3339V230.025H101.513V220.845Z" fill="black"/>
<path d="M110.693 220.845H101.513V230.025H110.693V220.845Z" fill="black"/>
<path d="M119.872 220.845H110.693V230.025H119.872V220.845Z" fill="black"/>
<path d="M129.052 220.845H119.872V230.025H129.052V220.845Z" fill="white"/>
<path d="M138.231 220.845H129.052V230.025H138.231V220.845Z" fill="white"/>
<path d="M147.41 220.845H138.231V230.025H147.41V220.845Z" fill="white"/>
<path d="M156.59 220.845H147.41V230.025H156.59V220.845Z" fill="white"/>
<path d="M165.769 220.845H156.59V230.025H165.769V220.845Z" fill="white"/>
<path d="M174.948 220.845H165.769V230.025H174.948V220.845Z" fill="black"/>
<path d="M184.128 220.845H174.948V230.025H184.128V220.845Z" fill="black"/>
<path d="M193.307 220.845H184.128V230.025H193.307V220.845Z" fill="white"/>
<path d="M202.487 220.845H193.307V230.025H202.487V220.845Z" fill="white"/>
<path d="M211.666 220.845H202.487V230.025H211.666V220.845Z" fill="black"/>
<path d="M220.845 220.845H211.666V230.025H220.845V220.845Z" fill="white"/>
<path d="M230.025 220.845H220.845V230.025H230.025V220.845Z" fill="black"/>
<path d="M239.204 220.845H230.025V230.025H239.204V220.845Z" fill="white"/>
<path d="M248.384 220.845H239.204V230.025H248.384V220.845Z" fill="black"/>
<path d="M257.563 220.845H248.384V230.025H257.563V220.845Z" fill="white"/>
<path d="M266.742 220.845H257.563V230.025H266.742V220.845Z" fill="white"/>
<path d="M275.922 220.845H266.742V230.025H275.922V220.845Z" fill="black"/>
<path d="M285.101 220.845H275.922V230.025H285.101V220.845Z" fill="white"/>
<path d="M28.0782 230.025H18.8988V239.204H28.0782V230.025Z" fill="black"/>
<path d="M37.2575 230.025H28.0781V239.204H37.2575V230.025Z" fill="white"/>
<path d="M46.437 230.025H37.2576V239.204H46.437V230.025Z" fill="white"/>
<path d="M55.6163 230.025H46.4369V239.204H55.6163V230.025Z" fill="white"/>
<path d="M64.7957 230.025H55.6163V239.204H64.7957V230.025Z" fill="white"/>
<path d="M73.9751 230.025H64.7957V239.204H73.9751V230.025Z" fill="white"/>
<path d="M83.1546 230.025H73.9752V239.204H83.1546V230.025Z" fill="black"/>
<path d="M92.3339 230.025H83.1545V239.204H92.3339V230.025Z" fill="white"/>
<path d="M101.513 230.025H92.3339V239.204H101.513V230.025Z" fill="white"/>
<path d="M110.693 230.025H101.513V239.204H110.693V230.025Z" fill="white"/>
<path d="M119.872 230.025H110.693V239.204H119.872V230.025Z" fill="white"/>
<path d="M129.052 230.025H119.872V239.204H129.052V230.025Z" fill="black"/>
<path d="M138.231 230.025H129.052V239.204H138.231V230.025Z" fill="black"/>
<path d="M147.41 230.025H138.231V239.204H147.41V230.025Z" fill="black"/>
<path d="M156.59 230.025H147.41V239.204H156.59V230.025Z" fill="white"/>
<path d="M165.769 230.025H156.59V239.204H165.769V230.025Z" fill="black"/>
<path d="M174.948 230.025H165.769V239.204H174.948V230.025Z" fill="black"/>
<path d="M184.128 230.025H174.948V239.204H184.128V230.025Z" fill="white"/>
<path d="M193.307 230.025H184.128V239.204H193.307V230.025Z" fill="black"/>
<path d="M202.487 230.025H193.307V239.204H202.487V230.025Z" fill="white"/>
<path d="M211.666 230.025H202.487V239.204H211.666V230.025Z" fill="black"/>
<path d="M220.845 230.025H211.666V239.204H220.845V230.025Z" fill="white"/>
<path d="M230.025 230.025H220.845V239.204H230.025V230.025Z" fill="white"/>
<path d="M239.204 230.025H230.025V239.204H239.204V230.025Z" fill="white"/>
<path d="M248.384 230.025H239.204V239.204H248.384V230.025Z" fill="black"/>
<path d="M257.563 230.025H248.384V239.204H257.563V230.025Z" fill="black"/>
<path d="M266.742 230.025H257.563V239.204H266.742V230.025Z" fill="black"/>
<path d="M275.922 230.025H266.742V239.204H275.922V230.025Z" fill="black"/>
<path d="M285.101 230.025H275.922V239.204H285.101V230.025Z" fill="white"/>
<path d="M28.0782 239.204H18.8988V248.384H28.0782V239.204Z" fill="black"/>
<path d="M37.2575 239.204H28.0781V248.384H37.2575V239.204Z" fill="white"/>
<path d="M46.437 239.204H37.2576V248.384H46.437V239.204Z" fill="black"/>
<path d="M55.6163 239.204H46.4369V248.384H55.6163V239.204Z" fill="black"/>
<path d="M64.7957 239.204H55.6163V248.384H64.7957V239.204Z" fill="black"/>
<path d="M73.9751 239.204H64.7957V248.384H73.9751V239.204Z" fill="white"/>
<path d="M83.1546 239.204H73.9752V248.384H83.1546V239.204Z" fill="black"/>
<path d="M92.3339 239.204H83.1545V248.384H92.3339V239.204Z" fill="white"/>
<path d="M101.513 239.204H92.3339V248.384H101.513V239.204Z" fill="white"/>
<path d="M110.693 239.204H101.513V248.384H110.693V239.204Z" fill="white"/>
<path d="M119.872 239.204H110.693V248.384H119.872V239.204Z" fill="white"/>
<path d="M129.052 239.204H119.872V248.384H129.052V239.204Z" fill="black"/>
<path d="M138.231 239.204H129.052V248.384H138.231V239.204Z" fill="white"/>
<path d="M147.41 239.204H138.231V248.384H147.41V239.204Z" fill="black"/>
<path d="M156.59 239.204H147.41V248.384H156.59V239.204Z" fill="white"/>
<path d="M165.769 239.204H156.59V248.384H165.769V239.204Z" fill="white"/>
<path d="M174.948 239.204H165.769V248.384H174.948V239.204Z" fill="white"/>
<path d="M184.128 239.204H174.948V248.384H184.128V239.204Z" fill="black"/>
<path d="M193.307 239.204H184.128V248.384H193.307V239.204Z" fill="white"/>
<path d="M202.487 239.204H193.307V248.384H202.487V239.204Z" fill="white"/>
<path d="M211.666 239.204H202.487V248.384H211.666V239.204Z" fill="black"/>
<path d="M220.845 239.204H211.666V248.384H220.845V239.204Z" fill="black"/>
<path d="M230.025 239.204H220.845V248.384H230.025V239.204Z" fill="black"/>
<path d="M239.204 239.204H230.025V248.384H239.204V239.204Z" fill="black"/>
<path d="M248.384 239.204H239.204V248.384H248.384V239.204Z" fill="black"/>
<path d="M257.563 239.204H248.384V248.384H257.563V239.204Z" fill="white"/>
<path d="M266.742 239.204H257.563V248.384H266.742V239.204Z" fill="white"/>
<path d="M275.922 239.204H266.742V248.384H275.922V239.204Z" fill="black"/>
<path d="M285.101 239.204H275.922V248.384H285.101V239.204Z" fill="black"/>
<path d="M28.0782 248.384H18.8988V257.563H28.0782V248.384Z" fill="black"/>
<path d="M37.2575 248.384H28.0781V257.563H37.2575V248.384Z" fill="white"/>
<path d="M46.437 248.384H37.2576V257.563H46.437V248.384Z" fill="black"/>
<path d="M55.6163 248.384H46.4369V257.563H55.6163V248.384Z" fill="black"/>
<path d="M64.7957 248.384H55.6163V257.563H64.7957V248.384Z" fill="black"/>
<path d="M73.9751 248.384H64.7957V257.563H73.9751V248.384Z" fill="white"/>
<path d="M83.1546 248.384H73.9752V257.563H83.1546V248.384Z" fill="black"/>
<path d="M92.3339 248.384H83.1545V257.563H92.3339V248.384Z" fill="white"/>
<path d="M101.513 248.384H92.3339V257.563H101.513V248.384Z" fill="black"/>
<path d="M110.693 248.384H101.513V257.563H110.693V248.384Z" fill="white"/>
<path d="M119.872 248.384H110.693V257.563H119.872V248.384Z" fill="white"/>
<path d="M129.052 248.384H119.872V257.563H129.052V248.384Z" fill="black"/>
<path d="M138.231 248.384H129.052V257.563H138.231V248.384Z" fill="black"/>
<path d="M147.41 248.384H138.231V257.563H147.41V248.384Z" fill="white"/>
<path d="M156.59 248.384H147.41V257.563H156.59V248.384Z" fill="white"/>
<path d="M165.769 248.384H156.59V257.563H165.769V248.384Z" fill="white"/>
<path d="M174.948 248.384H165.769V257.563H174.948V248.384Z" fill="black"/>
<path d="M184.128 248.384H174.948V257.563H184.128V248.384Z" fill="black"/>
<path d="M193.307 248.384H184.128V257.563H193.307V248.384Z" fill="white"/>
<path d="M202.487 248.384H193.307V257.563H202.487V248.384Z" fill="white"/>
<path d="M211.666 248.384H202.487V257.563H211.666V248.384Z" fill="black"/>
<path d="M220.845 248.384H211.666V257.563H220.845V248.384Z" fill="white"/>
<path d="M230.025 248.384H220.845V257.563H230.025V248.384Z" fill="black"/>
<path d="M239.204 248.384H230.025V257.563H239.204V248.384Z" fill="black"/>
<path d="M248.384 248.384H239.204V257.563H248.384V248.384Z" fill="black"/>
<path d="M257.563 248.384H248.384V257.563H257.563V248.384Z" fill="black"/>
<path d="M266.742 248.384H257.563V257.563H266.742V248.384Z" fill="black"/>
<path d="M275.922 248.384H266.742V257.563H275.922V248.384Z" fill="white"/>
<path d="M285.101 248.384H275.922V257.563H285.101V248.384Z" fill="white"/>
<path d="M28.0782 257.563H18.8988V266.742H28.0782V257.563Z" fill="black"/>
<path d="M37.2575 257.563H28.0781V266.742H37.2575V257.563Z" fill="white"/>
<path d="M46.437 257.563H37.2576V266.742H46.437V257.563Z" fill="black"/>
<path d="M55.6163 257.563H46.4369V266.742H55.6163V257.563Z" fill="black"/>
<path d="M64.7957 257.563H55.6163V266.742H64.7957V257.563Z" fill="black"/>
<path d="M73.9751 257.563H64.7957V266.742H73.9751V257.563Z" fill="white"/>
<path d="M83.1546 257.563H73.9752V266.742H83.1546V257.563Z" fill="black"/>
<path d="M92.3339 257.563H83.1545V266.742H92.3339V257.563Z" fill="white"/>
<path d="M101.513 257.563H92.3339V266.742H101.513V257.563Z" fill="white"/>
<path d="M110.693 257.563H101.513V266.742H110.693V257.563Z" fill="black"/>
<path d="M119.872 257.563H110.693V266.742H119.872V257.563Z" fill="white"/>
<path d="M129.052 257.563H119.872V266.742H129.052V257.563Z" fill="black"/>
<path d="M138.231 257.563H129.052V266.742H138.231V257.563Z" fill="black"/>
<path d="M147.41 257.563H138.231V266.742H147.41V257.563Z" fill="white"/>
<path d="M156.59 257.563H147.41V266.742H156.59V257.563Z" fill="white"/>
<path d="M165.769 257.563H156.59V266.742H165.769V257.563Z" fill="white"/>
<path d="M174.948 257.563H165.769V266.742H174.948V257.563Z" fill="black"/>
<path d="M184.128 257.563H174.948V266.742H184.128V257.563Z" fill="white"/>
<path d="M193.307 257.563H184.128V266.742H193.307V257.563Z" fill="black"/>
<path d="M202.487 257.563H193.307V266.742H202.487V257.563Z" fill="black"/>
<path d="M211.666 257.563H202.487V266.742H211.666V257.563Z" fill="black"/>
<path d="M220.845 257.563H211.666V266.742H220.845V257.563Z" fill="black"/>
<path d="M230.025 257.563H220.845V266.742H230.025V257.563Z" fill="white"/>
<path d="M239.204 257.563H230.025V266.742H239.204V257.563Z" fill="white"/>
<path d="M248.384 257.563H239.204V266.742H248.384V257.563Z" fill="black"/>
<path d="M257.563 257.563H248.384V266.742H257.563V257.563Z" fill="black"/>
<path d="M266.742 257.563H257.563V266.742H266.742V257.563Z" fill="black"/>
<path d="M275.922 257.563H266.742V266.742H275.922V257.563Z" fill="white"/>
<path d="M285.101 257.563H275.922V266.742H285.101V257.563Z" fill="black"/>
<path d="M28.0782 266.742H18.8988V275.922H28.0782V266.742Z" fill="black"/>
<path d="M37.2575 266.742H28.0781V275.922H37.2575V266.742Z" fill="white"/>
<path d="M46.437 266.742H37.2576V275.922H46.437V266.742Z" fill="white"/>
<path d="M55.6163 266.742H46.4369V275.922H55.6163V266.742Z" fill="white"/>
<path d="M64.7957 266.742H55.6163V275.922H64.7957V266.742Z" fill="white"/>
<path d="M73.9751 266.742H64.7957V275.922H73.9751V266.742Z" fill="white"/>
<path d="M83.1546 266.742H73.9752V275.922H83.1546V266.742Z" fill="black"/>
<path d="M92.3339 266.742H83.1545V275.922H92.3339V266.742Z" fill="white"/>
<path d="M101.513 266.742H92.3339V275.922H101.513V266.742Z" fill="black"/>
<path d="M110.693 266.742H101.513V275.922H110.693V266.742Z" fill="white"/>
<path d="M119.872 266.742H110.693V275.922H119.872V266.742Z" fill="black"/>
<path d="M129.052 266.742H119.872V275.922H129.052V266.742Z" fill="white"/>
<path d="M138.231 266.742H129.052V275.922H138.231V266.742Z" fill="black"/>
<path d="M147.41 266.742H138.231V275.922H147.41V266.742Z" fill="black"/>
<path d="M156.59 266.742H147.41V275.922H156.59V266.742Z" fill="black"/>
<path d="M165.769 266.742H156.59V275.922H165.769V266.742Z" fill="white"/>
<path d="M174.948 266.742H165.769V275.922H174.948V266.742Z" fill="black"/>
<path d="M184.128 266.742H174.948V275.922H184.128V266.742Z" fill="black"/>
<path d="M193.307 266.742H184.128V275.922H193.307V266.742Z" fill="white"/>
<path d="M202.487 266.742H193.307V275.922H202.487V266.742Z" fill="black"/>
<path d="M211.666 266.742H202.487V275.922H211.666V266.742Z" fill="black"/>
<path d="M220.845 266.742H211.666V275.922H220.845V266.742Z" fill="white"/>
<path d="M230.025 266.742H220.845V275.922H230.025V266.742Z" fill="white"/>
<path d="M239.204 266.742H230.025V275.922H239.204V266.742Z" fill="black"/>
<path d="M248.384 266.742H239.204V275.922H248.384V266.742Z" fill="white"/>
<path d="M257.563 266.742H248.384V275.922H257.563V266.742Z" fill="white"/>
<path d="M266.742 266.742H257.563V275.922H266.742V266.742Z" fill="white"/>
<path d="M275.922 266.742H266.742V275.922H275.922V266.742Z" fill="black"/>
<path d="M285.101 266.742H275.922V275.922H285.101V266.742Z" fill="white"/>
<path d="M28.0782 275.922H18.8988V285.101H28.0782V275.922Z" fill="black"/>
<path d="M37.2575 275.922H28.0781V285.101H37.2575V275.922Z" fill="black"/>
<path d="M46.437 275.922H37.2576V285.101H46.437V275.922Z" fill="black"/>
<path d="M55.6163 275.922H46.4369V285.101H55.6163V275.922Z" fill="black"/>
<path d="M64.7957 275.922H55.6163V285.101H64.7957V275.922Z" fill="black"/>
<path d="M73.9751 275.922H64.7957V285.101H73.9751V275.922Z" fill="black"/>
<path d="M83.1546 275.922H73.9752V285.101H83.1546V275.922Z" fill="black"/>
<path d="M92.3339 275.922H83.1545V285.101H92.3339V275.922Z" fill="white"/>
<path d="M101.513 275.922H92.3339V285.101H101.513V275.922Z" fill="black"/>
<path d="M110.693 275.922H101.513V285.101H110.693V275.922Z" fill="white"/>
<path d="M119.872 275.922H110.693V285.101H119.872V275.922Z" fill="black"/>
<path d="M129.052 275.922H119.872V285.101H129.052V275.922Z" fill="white"/>
<path d="M138.231 275.922H129.052V285.101H138.231V275.922Z" fill="black"/>
<path d="M147.41 275.922H138.231V285.101H147.41V275.922Z" fill="white"/>
<path d="M156.59 275.922H147.41V285.101H156.59V275.922Z" fill="white"/>
<path d="M165.769 275.922H156.59V285.101H165.769V275.922Z" fill="white"/>
<path d="M174.948 275.922H165.769V285.101H174.948V275.922Z" fill="black"/>
<path d="M184.128 275.922H174.948V285.101H184.128V275.922Z" fill="white"/>
<path d="M193.307 275.922H184.128V285.101H193.307V275.922Z" fill="white"/>
<path d="M202.487 275.922H193.307V285.101H202.487V275.922Z" fill="black"/>
<path d="M211.666 275.922H202.487V285.101H211.666V275.922Z" fill="black"/>
<path d="M220.845 275.922H211.666V285.101H220.845V275.922Z" fill="white"/>
<path d="M230.025 275.922H220.845V285.101H230.025V275.922Z" fill="white"/>
<path d="M239.204 275.922H230.025V285.101H239.204V275.922Z" fill="white"/>
<path d="M248.384 275.922H239.204V285.101H248.384V275.922Z" fill="white"/>
<path d="M257.563 275.922H248.384V285.101H257.563V275.922Z" fill="black"/>
<path d="M266.742 275.922H257.563V285.101H266.742V275.922Z" fill="white"/>
<path d="M275.922 275.922H266.742V285.101H275.922V275.922Z" fill="black"/>
<path d="M285.101 275.922H275.922V285.101H285.101V275.922Z" fill="white"/>
<rect x="136" y="137" width="32" height="32" rx="4" fill="white"/>
<path fill-rule="evenodd" clip-rule="evenodd" d="M151.654 144.726C152.979 143.262 154.918 142.338 157.077 142.338C161.071 142.338 164.309 145.496 164.309 149.392C164.309 149.958 164.24 150.509 164.111 151.036C163.253 155.316 159.09 160.059 151.624 165.263C143.208 159.467 139 154.184 139 149.416V149.392C139 145.497 142.237 142.338 146.231 142.338C148.391 142.338 150.329 143.262 151.654 144.726L151.654 144.726Z" fill="url(#paint0_linear_908_8848)"/>
<path d="M157.144 139L142.869 153.875H152.021L144.686 167L161.909 149.751H152.328L157.144 139Z" fill="url(#paint1_linear_908_8848)"/>
<path d="M157.144 139L142.869 153.875H152.021L144.686 167L161.909 149.751H152.328L157.144 139Z" fill="url(#paint2_linear_908_8848)" fill-opacity="0.6"/>
<path d="M155.222 141.953L146.026 152.666H154.27L147.06 163.946L158.447 150.895H150.313L155.222 141.953Z" fill="#FFF937"/>
</g>
<defs>
<linearGradient id="paint0_linear_908_8848" x1="161.502" y1="138.287" x2="142.818" y2="167.407" gradientUnits="userSpaceOnUse">
<stop stop-color="#FF9E32"/>
<stop offset="1" stop-color="#C84800"/>
</linearGradient>
<linearGradient id="paint1_linear_908_8848" x1="158.224" y1="137.982" x2="143.78" y2="166.903" gradientUnits="userSpaceOnUse">
<stop stop-color="#FFB445"/>
<stop offset="1" stop-color="#FF7A00"/>
</linearGradient>
<linearGradient id="paint2_linear_908_8848" x1="140.918" y1="154.619" x2="163.351" y2="149.784" gradientUnits="userSpaceOnUse">
<stop offset="0.161458" stop-color="white" stop-opacity="0"/>
<stop offset="0.520833" stop-color="#FFE600"/>
<stop offset="0.791667" stop-color="white" stop-opacity="0"/>
</linearGradient>
<clipPath id="clip0_908_8848">
<rect width="304" height="304" fill="white"/>
</clipPath>
</defs>
</svg>
