<svg width="45" height="46" viewBox="0 0 45 46" fill="none" xmlns="http://www.w3.org/2000/svg">
<g clip-path="url(#clip0_716_6218)">
<circle cx="22.5" cy="23" r="22.5" fill="#5AC8FA"/>
<path d="M21.7592 25.4151L23.9926 28.3338C23.6854 28.4047 23.3545 28.4402 23.0118 28.4402C20.353 28.4284 18.616 26.4431 18.616 22.7917C18.616 19.1285 20.353 17.1551 23.0118 17.1433C25.647 17.1551 27.3959 19.1285 27.384 22.7917C27.3959 24.6824 26.9232 26.1359 26.1078 27.0812L24.808 25.4151H21.7592ZM15 22.7917C15 28.3575 18.4505 31.5835 23.0118 31.5835C24.0753 31.5835 25.0916 31.4062 26.0133 31.0635L27.384 32.7651H30.7164L28.2821 29.6928C29.9601 28.192 31 25.8523 31 22.7917C31 17.2024 27.5377 14 23.0118 14C18.4505 14 15 17.2024 15 22.7917Z" fill="white"/>
</g>
<defs>
<clipPath id="clip0_716_6218">
<rect width="45" height="45" fill="white" transform="translate(0 0.5)"/>
</clipPath>
</defs>
</svg>
