<svg width="24" height="24" viewBox="0 0 24 24" fill="none" xmlns="http://www.w3.org/2000/svg">
<path fill-rule="evenodd" clip-rule="evenodd" d="M20 1C21.6569 1 23 2.34315 23 4V20C23 21.6569 21.6569 23 20 23H4C2.34315 23 1 21.6569 1 20V4C1 2.34315 2.34315 1 4 1H20ZM20 3C20.5523 3 21 3.44772 21 4V20C21 20.5523 20.5523 21 20 21H4C3.44772 21 3 20.5523 3 20V4C3 3.44772 3.44772 3 4 3H20Z" fill="#34C759"/>
<path d="M17.3189 8.38176C16.9284 7.99124 16.2952 7.99124 15.9047 8.38176L10.9912 13.2953C10.6006 13.6858 9.96748 13.6858 9.57695 13.2953L8.12129 11.8396C7.73077 11.4491 7.0976 11.4491 6.70708 11.8396C6.31655 12.2301 6.31655 12.8633 6.70708 13.2538L8.5218 15.0624C9.49851 16.0357 11.0789 16.0345 12.0541 15.0595L17.3189 9.79597C17.7094 9.40545 17.7094 8.77228 17.3189 8.38176Z" fill="#34C759"/>
</svg>
