<svg width="32" height="32" viewBox="0 0 32 32" fill="none" xmlns="http://www.w3.org/2000/svg">
<path fill-rule="evenodd" clip-rule="evenodd" d="M26.377 5.22449C26.8418 5.11437 27.1658 5.00609 27.4312 4.89236C27.8032 4.73297 28.1117 4.54204 28.5989 4.22048C29.0084 3.95024 29.5332 3.9267 29.9652 4.15921C30.3972 4.39171 30.6667 4.84269 30.6667 5.33331C30.6667 6.77455 30.4872 7.9558 30.0713 8.99537C29.7215 9.86977 29.2301 10.58 28.6422 11.2264C28.3939 15.7106 27.0959 19.232 25.1115 21.9C23.0548 24.6651 20.3182 26.436 17.4334 27.4276C14.5572 28.4163 11.5182 28.6372 8.79563 28.3025C6.0909 27.9699 3.59075 27.0744 1.84809 25.719C1.37086 25.3479 1.2031 24.702 1.43937 24.1455C1.67563 23.589 2.25677 23.2611 2.85528 23.3466C4.5699 23.5916 6.22043 23.2018 7.57761 22.6444C7.31044 22.499 7.05854 22.3417 6.8244 22.1796C5.58769 21.3235 4.58989 20.1612 4.14077 19.263C3.95493 18.8913 3.95301 18.4542 4.13559 18.0809C4.22978 17.8883 4.36751 17.7241 4.53473 17.599C2.72905 16.1088 2.00001 14.0475 2.00001 12.6666C2.00001 12.2561 2.18918 11.8684 2.51281 11.6157C2.64888 11.5094 2.80235 11.4321 2.96413 11.3854C2.82901 10.9898 2.72416 10.59 2.64423 10.203C2.28988 8.48723 2.32133 6.55061 2.70648 5.00994C2.83829 4.48271 3.27688 4.08824 3.81507 4.01286C4.35326 3.93748 4.88335 4.19628 5.15492 4.66701C6.5916 7.15726 9.24157 8.67941 11.7078 9.58107C12.8674 10.005 13.9413 10.2751 14.7462 10.4412C14.9199 8.81375 15.3743 7.47163 16.0717 6.40564C16.9918 4.99925 18.2752 4.16716 19.6534 3.79613C22.0303 3.15627 24.6677 3.88526 26.377 5.22449ZM14.3313 13.0781C13.4178 12.8947 12.1623 12.5865 10.7922 12.0856C8.98256 11.424 6.8812 10.3924 5.12098 8.79444C5.15248 9.0885 5.19721 9.38005 5.25579 9.66371C5.55079 11.0922 6.09895 11.8921 6.5963 12.1408C7.20458 12.445 7.48648 13.1582 7.25052 13.796C6.93105 14.6596 6.09081 14.7305 5.32736 14.5396C5.9414 15.4602 7.04505 16.3781 8.88588 16.6849C9.52079 16.7907 9.98946 17.335 9.99984 17.9786C10.0102 18.6221 9.55933 19.1813 8.92816 19.3075L7.76755 19.5396C7.94509 19.694 8.13735 19.8453 8.34229 19.9871C9.27151 20.6304 10.2045 20.9079 11.01 20.7065C11.6132 20.5557 12.2406 20.8419 12.5222 21.3964C12.8037 21.9508 12.6646 22.6263 12.1869 23.0243C11.3284 23.739 10.3257 24.3124 9.32078 24.7884C8.84903 25.0118 8.32181 25.2323 7.74922 25.4265C8.1896 25.5204 8.64783 25.5975 9.12106 25.6557C11.4818 25.946 14.1095 25.7503 16.5666 24.9057C19.0152 24.064 21.2786 22.5849 22.9718 20.3084C24.6628 18.0351 25.8427 14.8891 26.0009 10.6174C26.0134 10.2811 26.1526 9.96189 26.3905 9.72391C26.9901 9.12438 27.4855 8.43719 27.7293 7.61923C27.3027 7.7522 26.8224 7.86729 26.2504 7.97666C25.8164 8.05961 25.3696 7.92224 25.0572 7.60985C24.0378 6.59049 22.0219 5.92014 20.3466 6.37112C19.5582 6.58337 18.8415 7.04287 18.3033 7.86557C17.7537 8.70554 17.3333 10.0141 17.3333 12C17.3333 12.3773 17.1735 12.737 16.8934 12.9898C16.2294 13.5891 15.112 13.2349 14.3313 13.0781Z" fill="#1C1C1E"/>
</svg>
