<svg width="189" height="41" viewBox="0 0 189 41" fill="none" xmlns="http://www.w3.org/2000/svg">
<path d="M0 40.3315H6.14492V22.7283H26.2556V40.3315H32.4005V0H26.2556V17.4918H6.14492V0H0V40.3315Z" fill="#EE8223"/>
<path d="M50.9492 40.9443C57.6249 40.9443 62.2894 37.6576 63.6301 32.7554H57.5969C56.5914 34.5938 54.3848 36.0421 51.0051 36.0421C46.0333 36.0421 42.6257 32.7833 42.4581 27.0177H64.0212V24.9008C64.0212 13.9545 57.4573 9.69293 50.5582 9.69293C42.095 9.69293 36.5087 16.0992 36.5366 25.4022C36.5087 34.7887 42.0112 40.9443 50.9492 40.9443ZM42.486 22.5611C42.7374 18.2996 45.8378 14.5673 50.6141 14.5951C55.1669 14.5673 58.1556 17.9654 58.1556 22.5611H42.486Z" fill="#EE8223"/>
<path d="M66.2579 31.8084C66.23 37.7133 70.727 41 76.4809 41C81.5085 41 84.3017 38.4654 85.4748 36.2092H85.6982V40.3315H91.508V20.2215C91.48 11.4477 84.4413 9.69293 79.6092 9.69293C72.4308 9.69293 67.7383 13.3139 67.2076 18.3274H73.1291C73.7436 16.0992 75.8664 14.4837 79.3857 14.4837C83.4358 14.4837 85.5586 16.4613 85.5306 19.8872L85.5586 22.3105C84.162 22.3662 79.6092 22.6168 77.5981 22.7283C72.1235 23.1182 66.23 24.9008 66.2579 31.8084ZM72.0677 31.8641C72.0677 28.8838 74.5257 27.4076 78.4361 27.1291C79.8606 27.0455 84.1899 26.7391 85.5586 26.6556L85.5865 29.413C85.5865 33.0061 82.6816 36.2371 77.8216 36.2649C74.4698 36.2371 72.0677 34.7609 72.0677 31.8641Z" fill="#EE8223"/>
<path d="M96.4262 40.3315H102.403V21.8927C102.403 17.9375 105.476 15.0686 109.61 15.0965C110.839 15.0686 112.235 15.3193 112.738 15.4307V9.74864C112.124 9.69293 110.951 9.60938 110.224 9.63723C106.677 9.60938 103.632 11.6427 102.515 14.8736H102.18V10.0829H96.4262V40.3315Z" fill="#EE8223"/>
<path d="M130.896 10.0829H124.695V2.84103H118.774V10.0829H114.305V14.8179H118.774V32.644C118.718 38.159 122.935 40.7215 127.6 40.7215C129.248 40.7215 130.533 40.6101 131.343 40.4986V35.3179C130.505 35.4015 129.192 35.4851 128.326 35.4851C126.399 35.4572 124.723 34.8444 124.695 31.4185V14.8179H130.896V10.0829Z" fill="#EE8223"/>
<path d="M135.926 40.3315H150.227C158.327 40.3315 162.377 35.9864 162.405 29.8587C162.377 23.8981 158.55 20.0543 154.472 19.7758V19.4973C158.187 18.5224 160.813 15.375 160.785 10.4171C160.813 4.26155 156.791 0 149.277 0H135.926V40.3315ZM138.831 37.6576V21.1685H150.338C155.813 21.1406 159.556 24.873 159.556 29.803C159.556 34.4266 156.316 37.6855 150.227 37.6576H138.831ZM138.831 18.5503V2.61821H149.277C154.891 2.64606 157.992 5.70992 157.992 10.4728C157.992 15.0129 154.975 18.5503 149.947 18.5503H138.831Z" fill="#EE8223"/>
<path d="M167.77 40.3315H170.619V10.0829H167.77V40.3315ZM166.988 2.67391C167.016 3.84375 167.993 4.79076 169.222 4.79076C170.395 4.79076 171.373 3.84375 171.401 2.67391C171.373 1.53193 170.395 0.584918 169.222 0.557065C167.993 0.584918 167.016 1.53193 166.988 2.67391Z" fill="#EE8223"/>
<path d="M188.218 10.0829H181.85V2.84103H179.056V10.0829H174.587V12.534H179.056V33.4796C179.056 38.2147 182.743 40.805 186.598 40.8329C187.743 40.805 188.441 40.7493 189 40.6658V38.0476C188.413 38.0754 187.408 38.1033 186.821 38.1033C184.224 38.1033 181.877 36.627 181.85 32.9226V12.534H188.218V10.0829Z" fill="#EE8223"/>
</svg>
